# Generated by scripts/prepare_faive_pip_outer_surfaces.py
v -0.04242810822 0.1746887054 0.02743185997
v -0.04211471939 0.1717268066 0.02707278252
v -0.04204758072 0.1711564941 0.02694589615
v -0.04197101974 0.1706231537 0.02671021461
v -0.0418879776 0.1701472626 0.02637479591
v -0.041801651 0.1697471313 0.02595252991
v -0.0417153511 0.1694381256 0.02545964622
v -0.0416323967 0.169232132 0.02491508293
v -0.04155597687 0.1691370544 0.02433976936
v -0.04148902893 0.1691565399 0.0237558136
v -0.04144527817 0.1754102478 0.01852068901
v -0.04140300751 0.1693392181 0.02288295174
v -0.04136677933 0.1745181885 0.01854750824
v -0.04133288193 0.1696498871 0.02204556274
v -0.04130497742 0.1736386719 0.01870646286
v -0.0412802124 0.1700816345 0.02126231766
v -0.04126125717 0.172791275 0.01899401093
v -0.04124617386 0.1706248322 0.02055067825
v -0.04123659134 0.1719949341 0.01940373993
v -0.04123152542 0.1712673798 0.01992651367
v -0.02957025528 0.1758656769 0.02894527435
v -0.02925686836 0.1729037781 0.0285861969
v -0.02918972969 0.1723334656 0.02845930862
v -0.02911316681 0.1718001099 0.02822362709
v -0.02903012657 0.171324234 0.0278882103
v -0.02894379807 0.1709241028 0.02746594429
v -0.02885749817 0.170615097 0.02697306061
v -0.02877454567 0.1704090881 0.02642849731
v -0.02869812584 0.1703140106 0.02585318375
v -0.02863117599 0.1703335114 0.02526922798
v -0.02854515839 0.1705161743 0.02439636612
v -0.0285089283 0.1756951599 0.02006092262
v -0.02847503281 0.1708268433 0.02355897713
v -0.0284471283 0.1748156281 0.02021987724
v -0.02842236328 0.1712585907 0.02277573204
v -0.02840340614 0.1739682465 0.02050742531
v -0.02838832283 0.1718018036 0.02206409264
v -0.0283787384 0.1731718903 0.02091715431
v -0.02837367249 0.1724443359 0.02143992805
f 34 21 36
f 36 21 38
f 38 21 39
f 39 21 37
f 37 21 22
f 37 22 35
f 35 22 33
f 33 22 31
f 31 22 30
f 30 22 29
f 29 22 28
f 28 22 27
f 27 22 26
f 26 22 25
f 25 22 24
f 24 22 23
f 11 13 1
f 1 13 15
f 1 15 17
f 17 19 1
f 1 19 20
f 1 20 18
f 1 18 2
f 2 18 16
f 2 16 14
f 14 12 2
f 2 12 10
f 2 10 9
f 9 8 2
f 2 8 7
f 2 7 6
f 6 5 2
f 2 5 4
f 2 4 3
f 13 32 15
f 15 32 34
f 15 34 17
f 17 34 36
f 17 36 19
f 19 36 38
f 19 38 20
f 20 38 39
f 20 39 18
f 18 39 37
f 18 37 16
f 16 37 35
f 16 35 14
f 14 35 33
f 14 33 12
f 12 33 31
f 12 31 10
f 10 31 30
f 10 30 9
f 9 30 29
f 9 29 8
f 8 29 28
f 8 28 7
f 7 28 27
f 7 27 6
f 6 27 26
f 6 26 5
f 5 26 25
f 5 25 4
f 4 25 24
f 4 24 3
f 3 24 23
f 3 23 2
f 2 23 22
f 22 21 2
f 2 21 1
