# Generated by scripts/prepare_faive_pip_outer_surfaces.py
v -0.04161807251 0.1680121002 0.02574218369
v -0.04160971832 0.1684397888 0.0253386116
v -0.04160942078 0.1675145569 0.0260556221
v -0.04158468628 0.1687812042 0.02486041451
v -0.04158409882 0.1669662933 0.02626688004
v -0.04154393387 0.1690232239 0.0243259697
v -0.04154308319 0.1663883667 0.02636783981
v -0.04148902893 0.1691565399 0.0237558136
v -0.04148794556 0.165803009 0.02635462189
v -0.04139050674 0.1692073364 0.02287927246
v -0.04128052902 0.1691286011 0.02200616646
v -0.04117455673 0.1628411102 0.02599554253
v -0.04116148376 0.1689219971 0.02115542603
v -0.04103594971 0.168592041 0.02034550095
v -0.04090664673 0.168145874 0.01959395027
v -0.04077638626 0.1675931702 0.01891707039
v -0.04064798355 0.1669459229 0.01832954216
v -0.04052422714 0.1662181549 0.01784410286
v -0.04040780258 0.1654256592 0.01747127724
v -0.04030123138 0.1645856018 0.01721915245
v -0.03630876541 0.1676749878 0.01912171173
v -0.03619832993 0.1670774994 0.01864811516
v -0.03618532944 0.1670987549 0.01852115631
v -0.03609222031 0.1664232788 0.01825542068
v -0.03606132889 0.1666132812 0.01784521294
v -0.03599219131 0.1657230835 0.01795010757
v -0.03593920517 0.1662281189 0.01710717583
v -0.0358998909 0.1649884949 0.01773720551
v -0.03582135391 0.1659508514 0.016321558
v -0.03571009827 0.1657869263 0.01550381088
v -0.03560762024 0.165739563 0.01467001343
v -0.03557643509 0.1657124329 0.01442614937
v -0.03554155731 0.1656260376 0.01419702339
v -0.03553687286 0.1615945892 0.01729244614
v -0.03550512314 0.165485672 0.01399665451
v -0.03546936417 0.1652999115 0.01383729935
v -0.03543646622 0.1650801239 0.01372870827
v -0.03540843964 0.1648397675 0.01367752457
v -0.03225359726 0.1680461884 0.01959902
v -0.03214316177 0.1674487 0.01912542152
v -0.03213016129 0.1674699402 0.01899846268
v -0.03203705215 0.1667944794 0.01873272896
v -0.03200616074 0.1669844666 0.01832252121
v -0.03193702316 0.1660942841 0.01842741394
v -0.03188403702 0.1665993042 0.0175844841
v -0.03184472084 0.1653596802 0.01821451187
v -0.03176618576 0.1663220367 0.01679886627
v -0.03165492821 0.1661581116 0.0159811182
v -0.03155245209 0.1661107635 0.01514732075
v -0.03152126503 0.1660836334 0.01490345669
v -0.03148638916 0.1659972382 0.01467433071
v -0.03148170662 0.1619657898 0.01776975441
v -0.03144995499 0.1658568726 0.01447396183
v -0.03141419601 0.1656711121 0.01431460667
v -0.03138129616 0.1654513245 0.01420601654
v -0.03135326958 0.165210968 0.01415483284
v -0.02876021957 0.1691890564 0.02725559807
v -0.02875186729 0.1696167603 0.02685202599
v -0.02875156975 0.1686915131 0.02756903458
v -0.02872683525 0.1699581757 0.02637382889
v -0.02872624969 0.1681432495 0.02778029251
v -0.02868608284 0.1702001953 0.02583938408
v -0.02868523216 0.1675653381 0.0278812542
v -0.02863117599 0.1703335114 0.02526922798
v -0.02863009453 0.1669799652 0.02786803627
v -0.02853265381 0.1703843079 0.02439268684
v -0.02842267799 0.1703055573 0.02351958084
v -0.02831670761 0.1640180664 0.02750895691
v -0.02830363274 0.1700989685 0.02266884041
v -0.02817809868 0.1697690125 0.02185891342
v -0.02804879761 0.1693228455 0.02110736275
v -0.02791853333 0.1687701416 0.02043048477
v -0.02779013252 0.1681228943 0.01984295654
v -0.02766637802 0.1673951263 0.01935751534
v -0.02754995155 0.1666026154 0.01898469162
v -0.02744338036 0.1657625732 0.01873256493
v -0.02708036423 0.1623686676 0.01828780746
f 19 12 18
f 18 12 17
f 17 12 16
f 16 12 15
f 15 12 14
f 14 12 9
f 14 9 13
f 13 9 11
f 11 9 10
f 10 9 8
f 8 9 7
f 8 7 5
f 5 3 8
f 8 3 1
f 8 1 2
f 2 4 8
f 8 4 6
f 38 32 33
f 29 34 27
f 27 28 25
f 25 28 26
f 25 26 24
f 25 24 23
f 23 24 22
f 23 22 21
f 33 35 38
f 38 35 36
f 38 36 37
f 21 39 23
f 23 39 41
f 23 41 25
f 25 41 43
f 25 43 27
f 27 43 45
f 27 45 29
f 29 45 47
f 29 47 30
f 30 47 48
f 30 48 31
f 31 48 49
f 31 49 32
f 32 49 50
f 32 50 33
f 33 50 51
f 33 51 35
f 35 51 53
f 35 53 36
f 36 53 54
f 36 54 37
f 37 54 55
f 37 55 38
f 38 55 56
f 55 54 56
f 56 54 53
f 56 53 51
f 51 50 56
f 52 47 45
f 52 45 46
f 46 45 43
f 46 43 44
f 44 43 42
f 42 43 41
f 42 41 40
f 40 41 39
f 77 46 76
f 68 65 12
f 12 65 9
f 9 65 7
f 7 65 63
f 7 63 5
f 5 63 61
f 5 61 3
f 3 61 59
f 3 59 1
f 1 59 57
f 1 57 2
f 2 57 58
f 2 58 4
f 4 58 60
f 4 60 6
f 6 60 62
f 6 62 8
f 8 62 64
f 21 72 39
f 39 72 73
f 39 73 40
f 40 73 74
f 40 74 42
f 42 74 75
f 42 75 44
f 44 75 76
f 44 76 46
f 22 17 21
f 21 17 16
f 21 16 72
f 72 16 71
f 71 16 15
f 71 15 70
f 70 15 14
f 70 14 69
f 69 14 13
f 69 13 67
f 67 13 11
f 67 11 66
f 66 11 10
f 66 10 64
f 64 10 8
f 17 22 18
f 18 22 24
f 18 24 19
f 19 24 26
f 19 26 20
f 20 26 28
f 68 76 75
f 68 75 74
f 74 73 68
f 68 73 72
f 68 72 71
f 71 70 68
f 68 70 65
f 65 70 69
f 65 69 67
f 67 66 65
f 65 66 64
f 65 64 63
f 63 64 61
f 61 64 59
f 59 64 57
f 57 64 58
f 58 64 60
f 60 64 62
