# https://github.com/mikedh/trimesh
v -0.00008333 -0.00300000 -0.00450000
v 0.00000000 -0.00312500 -0.00450000
v 0.00000000 -0.00312500 -0.00400000
v -0.00008333 -0.00300000 -0.00400000
v -0.00013388 -0.00250000 -0.00400000
v -0.00000000 -0.00262500 -0.00350000
v -0.00008333 -0.00250000 -0.00350000
v -0.00008333 -0.00250000 -0.00300000
v -0.00000000 -0.00262500 -0.00250000
v -0.00008333 -0.00250000 -0.00250000
v -0.00018750 -0.00200000 -0.00350000
v -0.00018750 -0.00200000 -0.00300000
v -0.00013388 -0.00200000 -0.00250000
v 0.00000000 -0.00212500 -0.00200000
v -0.00008333 -0.00200000 -0.00200000
v 0.00000000 -0.00212500 -0.00150000
v -0.00008333 -0.00200000 -0.00150000
v 0.00000000 -0.00300000 -0.00462500
v -0.00018750 -0.00200000 -0.00400000
v -0.00025000 -0.00150000 -0.00350000
v -0.00024112 -0.00150000 -0.00300000
v -0.00020492 -0.00150000 -0.00250000
v -0.00018750 -0.00150000 -0.00200000
v -0.00008333 -0.00250000 -0.00450000
v -0.00018750 -0.00100000 -0.00400000
v -0.00025000 -0.00100000 -0.00350000
v -0.00025000 -0.00100000 -0.00300000
v -0.00025000 -0.00100000 -0.00250000
v -0.00024112 -0.00100000 -0.00200000
v -0.00020492 -0.00100000 -0.00150000
v -0.00013388 -0.00150000 -0.00150000
v 0.00000000 -0.00050000 0.00012500
v -0.00008333 -0.00050000 -0.00000000
v -0.00008333 -0.00050000 -0.00450000
v -0.00018750 -0.00050000 -0.00400000
v -0.00018750 -0.00050000 -0.00350000
v -0.00018750 -0.00050000 -0.00250000
v -0.00020492 -0.00050000 -0.00200000
v -0.00024112 -0.00050000 -0.00150000
v -0.00020492 -0.00050000 -0.00100000
v -0.00013388 -0.00050000 -0.00050000
v -0.00008333 0.00000000 -0.00450000
v 0.00000000 0.00000000 -0.00462500
v -0.00008333 0.00000000 -0.00400000
v -0.00008333 0.00000000 -0.00250000
v -0.00013388 0.00000000 -0.00200000
v -0.00020492 0.00000000 -0.00150000
v -0.00013388 0.00000000 -0.00100000
v -0.00008333 0.00000000 -0.00050000
v -0.00000000 0.00050000 -0.00087500
v 0.00000000 0.00012500 -0.00450000
v 0.00000000 0.00012500 -0.00250000
v -0.00008333 0.00050000 -0.00200000
v -0.00018750 0.00050000 -0.00150000
v -0.00008333 0.00050000 -0.00100000
v -0.00008333 0.00100000 -0.00200000
v -0.00000000 0.00050000 -0.00212500
v -0.00013388 0.00100000 -0.00150000
v -0.00008333 0.00100000 -0.00100000
v 0.00000000 0.00100000 -0.00087500
v -0.00008333 0.00150000 -0.00200000
v 0.00000000 0.00150000 -0.00212500
v -0.00008333 0.00150000 -0.00150000
v -0.00000000 0.00150000 -0.00137500
v -0.00000000 0.00200000 -0.00262500
v -0.00013388 0.00200000 -0.00200000
v -0.00008333 0.00200000 -0.00150000
v -0.00000000 0.00200000 -0.00137500
v -0.00008333 0.00200000 -0.00250000
v -0.00008333 0.00250000 -0.00200000
v -0.00008333 0.00300000 -0.00250000
v -0.00000000 0.00300000 -0.00262500
v -0.00000000 0.00312500 -0.00250000
v 0.00037500 -0.00400000 -0.00400000
v 0.00087500 -0.00400000 -0.00350000
v 0.00037500 -0.00350000 -0.00400000
v 0.00050000 -0.00350000 -0.00412500
v 0.00037500 -0.00350000 -0.00200000
v 0.00050000 -0.00312500 -0.00450000
v 0.00037500 -0.00300000 -0.00350000
v 0.00037500 -0.00300000 -0.00250000
v 0.00037500 -0.00300000 -0.00150000
v 0.00037500 -0.00250000 -0.00200000
v 0.00037500 -0.00250000 0.00050000
v 0.00037500 -0.00250000 -0.00150000
v 0.00037500 -0.00300000 -0.00000000
v 0.00037500 -0.00250000 0.00200000
v 0.00037500 -0.00200000 0.00250000
v 0.00037500 -0.00200000 0.00300000
v 0.00087500 -0.00250000 0.00300000
v 0.00037500 -0.00150000 0.00350000
v 0.00037500 -0.00150000 0.00450000
v 0.00087500 -0.00150000 0.00500000
v 0.00037500 -0.00050000 0.00050000
v 0.00037500 -0.00100000 0.00500000
v 0.00037500 -0.00100000 0.00550000
v 0.00050000 -0.00100000 0.00558333
v 0.00037500 -0.00050000 0.00550000
v 0.00050000 -0.00050000 0.00558333
v 0.00050000 -0.00000000 -0.00512500
v 0.00050000 -0.00037500 0.00550000
v 0.00037500 -0.00000000 -0.00500000
v 0.00037500 0.00050000 -0.00450000
v 0.00037500 0.00050000 -0.00050000
v 0.00037500 -0.00000000 0.00500000
v 0.00050000 0.00000000 0.00512500
v 0.00037500 0.00050000 -0.00250000
v 0.00037500 0.00100000 -0.00050000
v 0.00037500 0.00100000 0.00250000
v 0.00050000 0.00100000 0.00512500
v 0.00037500 0.00100000 -0.00500000
v 0.00037500 0.00100000 -0.00300000
v 0.00037500 0.00150000 -0.00250000
v 0.00050000 0.00150000 -0.00262500
v 0.00037500 0.00150000 -0.00100000
v 0.00037500 0.00150000 0.00200000
v 0.00037500 0.00100000 0.00500000
v 0.00050000 0.00200000 -0.00262500
v 0.00050000 0.00200000 0.00212500
v 0.00037500 0.00200000 -0.00100000
v 0.00037500 0.00350000 -0.00250000
v 0.00037500 0.00350000 -0.00050000
v 0.00037500 0.00400000 0.00000000
v 0.00037500 0.00400000 0.00200000
v 0.00050000 0.00412500 0.00200000
v 0.00050000 -0.00400000 -0.00412500
v 0.00087500 -0.00450000 -0.00400000
v 0.00087500 -0.00450000 -0.00350000
v 0.00037500 -0.00350000 -0.00350000
v 0.00087500 -0.00400000 -0.00200000
v 0.00087500 -0.00400000 -0.00100000
v 0.00100000 -0.00400000 -0.00412500
v 0.00087500 -0.00350000 -0.00150000
v 0.00087500 -0.00350000 -0.00050000
v 0.00087500 -0.00350000 -0.00000000
v 0.00087500 -0.00350000 0.00100000
v 0.00137500 -0.00400000 0.00100000
v 0.00087500 -0.00300000 0.00050000
v 0.00087500 -0.00300000 0.00150000
v 0.00087500 -0.00300000 0.00200000
v 0.00087500 -0.00300000 0.00300000
v 0.00137500 -0.00350000 0.00300000
v 0.00050000 -0.00300000 -0.00462500
v 0.00087500 -0.00250000 0.00250000
v 0.00087500 -0.00250000 0.00350000
v 0.00087500 -0.00250000 0.00500000
v 0.00137500 -0.00300000 0.00500000
v 0.00087500 -0.00200000 0.00350000
v 0.00087500 -0.00200000 0.00450000
v 0.00087500 -0.00200000 0.00550000
v 0.00100000 -0.00200000 0.00558333
v 0.00087500 -0.00150000 0.00550000
v 0.00100000 -0.00150000 0.00558333
v 0.00100000 -0.00100000 0.00563388
v 0.00100000 -0.00050000 -0.00462500
v 0.00100000 -0.00050000 0.00558333
v 0.00100000 -0.00000000 -0.00512500
v 0.00100000 -0.00037500 0.00550000
v 0.00100000 0.00000000 0.00512500
v 0.00050000 0.00100000 -0.00512500
v 0.00087500 0.00150000 -0.00300000
v 0.00087500 0.00150000 0.00250000
v 0.00087500 0.00150000 0.00500000
v 0.00100000 0.00150000 0.00512500
v 0.00200000 0.00262500 -0.00500000
v 0.00087500 0.00150000 -0.00350000
v 0.00087500 0.00200000 -0.00300000
v 0.00087500 0.00200000 0.00250000
v 0.00087500 0.00200000 0.00350000
v 0.00100000 0.00212500 -0.00300000
v 0.00100000 0.00250000 -0.00262500
v 0.00137500 0.00250000 0.00250000
v 0.00100000 0.00250000 0.00212500
v 0.00087500 0.00250000 0.00400000
v 0.00087500 0.00250000 0.00500000
v 0.00100000 0.00250000 0.00512500
v 0.00100000 0.00300000 0.00212500
v 0.00100000 0.00262500 0.00500000
v 0.00050000 0.00400000 0.00212500
v 0.00050000 0.00362500 -0.00250000
v 0.00150000 -0.00500000 -0.00412500
v 0.00150000 -0.00512500 -0.00400000
v 0.00150000 -0.00512500 -0.00350000
v 0.00087500 -0.00400000 -0.00300000
v 0.00150000 -0.00462500 -0.00200000
v 0.00150000 -0.00462500 -0.00100000
v 0.00150000 -0.00412500 0.00100000
v 0.00150000 -0.00412500 0.00150000
v 0.00137500 -0.00400000 0.00150000
v 0.00100000 -0.00350000 -0.00462500
v 0.00137500 -0.00350000 0.00150000
v 0.00137500 -0.00350000 0.00200000
v 0.00137500 -0.00350000 0.00350000
v 0.00137500 -0.00300000 0.00350000
v 0.00137500 -0.00300000 0.00400000
v 0.00137500 -0.00300000 0.00550000
v 0.00150000 -0.00300000 0.00558333
v 0.00137500 -0.00250000 0.00550000
v 0.00150000 -0.00250000 0.00558333
v 0.00150000 -0.00200000 0.00563388
v 0.00150000 -0.00150000 0.00568750
v 0.00150000 -0.00100000 0.00558333
v 0.00150000 -0.00050000 -0.00512500
v 0.00150000 -0.00087500 0.00550000
v 0.00300000 0.00150000 0.00512500
v 0.00150000 0.00212500 -0.00350000
v 0.00150000 0.00250000 -0.00262500
v 0.00137500 0.00250000 0.00350000
v 0.00050000 0.00350000 -0.00262500
v 0.00137500 0.00300000 0.00250000
v 0.00137500 0.00300000 0.00400000
v 0.00150000 0.00300000 0.00462500
v 0.00150000 0.00262500 0.00500000
v 0.00150000 0.00312500 0.00250000
v 0.00150000 0.00350000 0.00212500
v 0.00150000 0.00312500 0.00300000
v 0.00100000 0.00262500 0.00450000
v 0.00243750 0.00362500 -0.00250000
v 0.00300000 0.00362500 -0.00050000
v 0.00050000 0.00362500 -0.00050000
v 0.00200000 -0.00500000 -0.00412500
v 0.00200000 -0.00512500 -0.00400000
v 0.00200000 -0.00512500 -0.00300000
v 0.00200000 -0.00512500 -0.00200000
v 0.00200000 -0.00462500 -0.00150000
v 0.00200000 -0.00462500 -0.00050000
v 0.00200000 -0.00462500 0.00100000
v 0.00200000 -0.00400000 -0.00412500
v 0.00200000 -0.00412500 0.00150000
v 0.00200000 -0.00412500 0.00200000
v 0.00200000 -0.00412500 0.00250000
v 0.00200000 -0.00412500 0.00350000
v 0.00200000 -0.00350000 -0.00462500
v 0.00200000 -0.00362500 0.00500000
v 0.00200000 -0.00362500 0.00550000
v 0.00200000 -0.00350000 0.00558333
v 0.00200000 -0.00300000 0.00563388
v 0.00200000 -0.00250000 0.00568750
v 0.00050000 -0.00050000 -0.00462500
v 0.00200000 -0.00200000 0.00570492
v 0.00200000 -0.00150000 0.00568750
v 0.00200000 -0.00100000 0.00558333
v 0.00250000 -0.00100000 -0.00462500
v 0.00250000 -0.00087500 0.00550000
v 0.00150000 -0.00050000 0.00512500
v 0.00200000 0.00200000 0.00512500
v 0.00200000 0.00250000 -0.00512500
v 0.00150000 0.00250000 0.00512500
v 0.00200000 0.00250000 0.00462500
v 0.00200000 0.00262500 -0.00350000
v 0.00150000 0.00212500 -0.00300000
v 0.00250000 0.00350000 -0.00262500
v 0.00200000 0.00312500 0.00250000
v 0.00200000 0.00350000 0.00212500
v 0.00200000 0.00362500 0.00300000
v 0.00200000 0.00350000 0.00462500
v 0.00200000 0.00400000 0.00212500
v 0.00200000 0.00362500 0.00450000
v 0.00050000 0.00412500 0.00000000
v 0.00200000 0.00412500 0.00200000
v 0.00250000 -0.00550000 -0.00412500
v 0.00250000 -0.00562500 -0.00300000
v 0.00250000 -0.00512500 -0.00250000
v 0.00250000 -0.00512500 -0.00150000
v 0.00250000 -0.00512500 -0.00050000
v 0.00250000 -0.00462500 0.00000000
v 0.00250000 -0.00462500 0.00150000
v 0.00250000 -0.00462500 0.00250000
v 0.00250000 -0.00450000 -0.00412500
v 0.00250000 -0.00400000 -0.00462500
v 0.00250000 -0.00412500 0.00300000
v 0.00250000 -0.00412500 0.00350000
v 0.00250000 -0.00412500 0.00400000
v 0.00250000 -0.00412500 0.00500000
v 0.00300000 -0.00400000 -0.00462500
v 0.00250000 -0.00362500 0.00550000
v 0.00250000 -0.00350000 0.00558333
v 0.00250000 -0.00300000 0.00568750
v 0.00250000 -0.00250000 0.00574112
v 0.00250000 -0.00200000 0.00570492
v 0.00250000 -0.00150000 0.00563388
v 0.00250000 -0.00100000 0.00558333
v 0.00250000 -0.00050000 0.00512500
v 0.00400000 0.00150000 0.00512500
v 0.00250000 0.00250000 -0.00562500
v 0.00250000 0.00250000 0.00462500
v 0.00250000 0.00262500 -0.00550000
v 0.00300000 0.00262500 -0.00500000
v 0.00250000 0.00262500 -0.00450000
v 0.00250000 0.00262500 -0.00400000
v 0.00250000 0.00312500 -0.00350000
v 0.00250000 0.00312500 -0.00300000
v 0.00250000 0.00350000 0.00462500
v 0.00237500 0.00350000 0.00250000
v 0.00250000 0.00362500 0.00200000
v 0.00250000 0.00412500 0.00150000
v 0.00300000 0.00412500 0.00000000
v 0.00300000 0.00412500 0.00150000
v 0.00250000 -0.00562500 -0.00400000
v 0.00300000 -0.00562500 -0.00200000
v 0.00250000 -0.00512500 -0.00200000
v 0.00300000 -0.00512500 -0.00000000
v 0.00300000 -0.00512500 0.00100000
v 0.00300000 -0.00450000 -0.00412500
v 0.00300000 -0.00462500 0.00300000
v 0.00300000 -0.00462500 0.00350000
v 0.00300000 -0.00412500 0.00400000
v 0.00300000 -0.00412500 0.00450000
v 0.00300000 -0.00412500 0.00550000
v 0.00300000 -0.00400000 0.00558333
v 0.00300000 -0.00350000 0.00563388
v 0.00300000 -0.00300000 0.00570492
v 0.00300000 -0.00250000 0.00574112
v 0.00300000 -0.00200000 0.00568750
v 0.00300000 -0.00150000 0.00558333
v 0.00300000 -0.00100000 -0.00512500
v 0.00300000 -0.00137500 0.00550000
v 0.00300000 -0.00100000 0.00512500
v 0.00250000 -0.00050000 -0.00512500
v 0.00300000 0.00200000 -0.00512500
v 0.00250000 0.00200000 0.00512500
v 0.00300000 0.00250000 -0.00562500
v 0.00300000 0.00262500 -0.00550000
v 0.00300000 0.00312500 -0.00450000
v 0.00300000 0.00312500 -0.00400000
v 0.00400000 0.00312500 -0.00300000
v 0.00300000 0.00362500 0.00200000
v 0.00250000 0.00362500 0.00250000
v 0.00250000 0.00362500 0.00450000
v 0.00300000 0.00400000 0.00462500
v 0.00300000 0.00412500 0.00250000
v 0.00300000 0.00412500 0.00450000
v 0.00350000 -0.00550000 -0.00412500
v 0.00350000 -0.00562500 -0.00400000
v 0.00250000 -0.00462500 0.00100000
v 0.00350000 -0.00500000 -0.00412500
v 0.00350000 -0.00450000 -0.00462500
v 0.00350000 -0.00462500 0.00400000
v 0.00350000 -0.00400000 0.00558333
v 0.00350000 -0.00350000 0.00568750
v 0.00350000 -0.00300000 0.00574112
v 0.00300000 -0.00150000 -0.00462500
v 0.00350000 -0.00250000 0.00570492
v 0.00350000 -0.00200000 0.00563388
v 0.00350000 -0.00150000 -0.00462500
v 0.00350000 -0.00150000 0.00558333
v 0.00350000 -0.00100000 -0.00512500
v 0.00350000 -0.00137500 0.00550000
v 0.00350000 0.00200000 -0.00562500
v 0.00300000 0.00200000 0.00462500
v 0.00350000 0.00312500 -0.00550000
v 0.00350000 0.00312500 -0.00500000
v 0.00350000 0.00312500 -0.00050000
v 0.00350000 0.00412500 0.00200000
v 0.00400000 0.00412500 0.00350000
v 0.00350000 0.00412500 0.00450000
v 0.00387500 -0.00600000 -0.00400000
v 0.00400000 -0.00600000 -0.00412500
v 0.00400000 -0.00608333 -0.00400000
v 0.00400000 -0.00600000 -0.00387500
v 0.00400000 -0.00562500 -0.00350000
v 0.00300000 -0.00562500 -0.00250000
v 0.00450000 -0.00512500 0.00250000
v 0.00350000 -0.00462500 0.00450000
v 0.00450000 -0.00462500 0.00550000
v 0.00150000 -0.00100000 -0.00462500
v 0.00400000 -0.00412500 0.00550000
v 0.00400000 -0.00400000 0.00558333
v 0.00400000 -0.00350000 0.00568750
v 0.00400000 -0.00300000 0.00574112
v 0.00400000 -0.00250000 0.00568750
v 0.00400000 -0.00200000 0.00558333
v 0.00400000 -0.00150000 -0.00512500
v 0.00400000 -0.00187500 0.00550000
v 0.00400000 -0.00150000 0.00512500
v 0.00250000 0.00200000 -0.00512500
v 0.00350000 -0.00100000 0.00512500
v 0.00400000 0.00150000 -0.00512500
v 0.00400000 0.00200000 -0.00562500
v 0.00400000 0.00200000 0.00462500
v 0.00412500 0.00250000 -0.00050000
v 0.00412500 0.00300000 0.00000000
v 0.00450000 0.00312500 -0.00350000
v 0.00350000 0.00312500 -0.00100000
v 0.00450000 0.00312500 -0.00200000
v 0.00450000 0.00350000 0.00087500
v 0.00400000 0.00362500 -0.00250000
v 0.00300000 0.00362500 -0.00100000
v 0.00400000 0.00412500 0.00100000
v 0.00450000 0.00412500 0.00350000
v 0.00350000 0.00412500 0.00400000
v 0.00400000 0.00450000 0.00462500
v 0.00400000 0.00462500 0.00400000
v 0.00400000 0.00462500 0.00450000
v 0.00450000 -0.00600000 -0.00412500
v 0.00450000 -0.00608333 -0.00400000
v 0.00450000 -0.00600000 -0.00387500
v 0.00450000 -0.00562500 -0.00350000
v 0.00450000 -0.00500000 -0.00412500
v 0.00450000 -0.00512500 -0.00000000
v 0.00450000 -0.00462500 0.00300000
v 0.00450000 -0.00450000 -0.00462500
v 0.00450000 -0.00450000 0.00558333
v 0.00450000 -0.00400000 0.00563388
v 0.00450000 -0.00350000 0.00570492
v 0.00450000 -0.00300000 0.00570492
v 0.00450000 -0.00250000 0.00563388
v 0.00450000 -0.00200000 0.00558333
v 0.00500000 -0.00200000 -0.00462500
v 0.00450000 -0.00187500 0.00550000
v 0.00450000 -0.00150000 0.00512500
v 0.00450000 -0.00087500 -0.00050000
v 0.00450000 -0.00050000 -0.00087500
v 0.00412500 -0.00050000 0.00000000
v 0.00450000 -0.00087500 0.00000000
v 0.00450000 -0.00050000 0.00037500
v 0.00412500 0.00000000 0.00050000
v 0.00450000 0.00000000 0.00087500
v 0.00350000 0.00150000 -0.00512500
v 0.00450000 0.00250000 -0.00087500
v 0.00450000 0.00150000 -0.00562500
v 0.00412500 -0.00050000 -0.00050000
v 0.00412500 0.00050000 -0.00000000
v 0.00450000 0.00100000 0.00512500
v 0.00450000 0.00150000 0.00462500
v 0.00350000 0.00300000 -0.00562500
v 0.00450000 0.00050000 0.00037500
v 0.00450000 0.00300000 -0.00137500
v 0.00450000 0.00362500 -0.00250000
v 0.00450000 0.00312500 -0.00150000
v 0.00450000 0.00300000 0.00037500
v 0.00350000 0.00400000 0.00462500
v 0.00400000 0.00400000 0.00087500
v 0.00450000 0.00450000 0.00462500
v 0.00500000 0.00412500 0.00300000
v 0.00450000 0.00462500 0.00400000
v 0.00450000 0.00462500 0.00450000
v 0.00462500 -0.00600000 -0.00400000
v 0.00500000 -0.00562500 -0.00400000
v 0.00450000 -0.00562500 -0.00050000
v 0.00500000 -0.00550000 -0.00412500
v 0.00500000 -0.00500000 -0.00462500
v 0.00500000 -0.00512500 0.00200000
v 0.00500000 -0.00462500 0.00250000
v 0.00500000 -0.00450000 0.00558333
v 0.00500000 -0.00400000 0.00568750
v 0.00500000 -0.00350000 0.00574112
v 0.00500000 -0.00300000 0.00568750
v 0.00500000 -0.00250000 0.00558333
v 0.00500000 -0.00237500 0.00550000
v 0.00500000 -0.00150000 -0.00512500
v 0.00500000 -0.00087500 0.00000000
v 0.00500000 -0.00050000 0.00037500
v 0.00537500 -0.00000000 -0.00050000
v 0.00500000 0.00000000 -0.00087500
v 0.00500000 0.00000000 0.00037500
v 0.00550000 0.00100000 -0.00512500
v 0.00500000 0.00150000 0.00462500
v 0.00500000 0.00200000 -0.00087500
v 0.00500000 0.00250000 -0.00137500
v 0.00500000 0.00300000 -0.00137500
v 0.00450000 0.00362500 -0.00300000
v 0.00500000 0.00312500 -0.00300000
v 0.00500000 0.00300000 0.00037500
v 0.00500000 0.00350000 0.00087500
v 0.00500000 0.00400000 0.00462500
v 0.00500000 0.00462500 0.00350000
v 0.00500000 0.00462500 0.00400000
v 0.00550000 -0.00562500 -0.00400000
v 0.00600000 -0.00562500 -0.00200000
v 0.00600000 -0.00512500 -0.00150000
v 0.00550000 -0.00500000 -0.00462500
v 0.00550000 -0.00450000 0.00558333
v 0.00550000 -0.00400000 0.00563388
v 0.00550000 -0.00350000 0.00570492
v 0.00550000 -0.00300000 0.00568750
v 0.00550000 -0.00250000 0.00558333
v 0.00550000 -0.00200000 -0.00512500
v 0.00600000 -0.00237500 0.00550000
v 0.00500000 -0.00200000 0.00512500
v 0.00537500 -0.00050000 -0.00000000
v 0.00650000 0.00050000 0.00512500
v 0.00550000 0.00050000 0.00512500
v 0.00500000 0.00100000 0.00512500
v 0.00550000 0.00150000 -0.00562500
v 0.00537500 0.00200000 -0.00050000
v 0.00537500 0.00300000 0.00000000
v 0.00537500 0.00250000 -0.00100000
v 0.00537500 0.00250000 -0.00050000
v 0.00537500 0.00300000 -0.00100000
v 0.00550000 0.00400000 0.00462500
v 0.00600000 0.00312500 -0.00550000
v 0.00600000 0.00312500 -0.00300000
v 0.00500000 0.00312500 -0.00200000
v 0.00600000 0.00312500 -0.00100000
v 0.00500000 0.00312500 -0.00150000
v 0.00500000 0.00362500 -0.00250000
v 0.00550000 0.00400000 0.00087500
v 0.00550000 0.00412500 0.00100000
v 0.00650000 0.00412500 0.00350000
v 0.00550000 0.00412500 0.00300000
v 0.00550000 0.00450000 0.00412500
v 0.00600000 0.00462500 0.00400000
v 0.00550000 -0.00512500 0.00200000
v 0.00400000 -0.00200000 -0.00462500
v 0.00550000 -0.00462500 0.00550000
v 0.00550000 -0.00250000 -0.00462500
v 0.00600000 -0.00350000 0.00568750
v 0.00600000 -0.00300000 0.00563388
v 0.00600000 -0.00250000 -0.00462500
v 0.00600000 -0.00250000 0.00558333
v 0.00600000 -0.00200000 -0.00512500
v 0.00600000 -0.00200000 0.00512500
v 0.00450000 0.00100000 -0.00512500
v 0.00600000 0.00100000 -0.00562500
v 0.00550000 0.00100000 0.00462500
v 0.00600000 0.00312500 -0.00050000
v 0.00600000 0.00362500 -0.00150000
v 0.00600000 0.00362500 -0.00000000
v 0.00600000 0.00350000 0.00462500
v 0.00600000 0.00362500 -0.00250000
v 0.00600000 0.00412500 0.00050000
v 0.00600000 0.00400000 0.00412500
v 0.00550000 0.00462500 0.00350000
v 0.00600000 0.00412500 0.00350000
v 0.00700000 -0.00512500 -0.00000000
v 0.00700000 -0.00512500 0.00050000
v 0.00550000 -0.00462500 0.00250000
v 0.00600000 -0.00400000 0.00558333
v 0.00650000 -0.00350000 0.00568750
v 0.00650000 -0.00300000 0.00558333
v 0.00650000 -0.00250000 -0.00512500
v 0.00650000 -0.00287500 0.00550000
v 0.00650000 -0.00250000 0.00512500
v 0.00650000 0.00050000 -0.00512500
v 0.00650000 0.00100000 -0.00562500
v 0.00650000 0.00100000 0.00462500
v 0.00637500 0.00350000 -0.00650000
v 0.00650000 0.00337500 -0.00650000
v 0.00637500 0.00350000 -0.00300000
v 0.00637500 0.00350000 -0.00100000
v 0.00637500 0.00350000 -0.00050000
v 0.00637500 0.00400000 -0.00700000
v 0.00650000 0.00400000 -0.00712500
v 0.00637500 0.00400000 -0.00250000
v 0.00637500 0.00400000 -0.00150000
v 0.00637500 0.00400000 -0.00100000
v 0.00650000 0.00362500 -0.00050000
v 0.00650000 0.00362500 -0.00000000
v 0.00650000 0.00400000 0.00412500
v 0.00637500 0.00350000 -0.00600000
v 0.00637500 0.00600000 -0.00300000
v 0.00650000 0.00412500 0.00050000
v 0.00650000 0.00462500 0.00400000
v 0.00650000 0.00450000 0.00412500
v 0.00637500 0.00550000 -0.00600000
v 0.00637500 0.00450000 -0.00100000
v 0.00687500 0.00550000 -0.00150000
v 0.00637500 0.00550000 -0.00700000
v 0.00637500 0.00550000 -0.00200000
v 0.00637500 0.00600000 -0.00550000
v 0.00637500 0.00600000 -0.00200000
v 0.00650000 0.00612500 -0.00550000
v 0.00637500 0.00650000 -0.00250000
v 0.00687500 0.00600000 -0.00150000
v 0.00600000 -0.00550000 -0.00462500
v 0.00700000 -0.00500000 0.00062500
v 0.00700000 -0.00462500 0.00100000
v 0.00800000 -0.00462500 0.00300000
v 0.00600000 -0.00412500 0.00550000
v 0.00700000 -0.00400000 0.00558333
v 0.00700000 -0.00350000 0.00563388
v 0.00700000 -0.00300000 0.00558333
v 0.00750000 -0.00300000 -0.00462500
v 0.00700000 -0.00287500 0.00550000
v 0.00700000 -0.00250000 0.00512500
v 0.00700000 0.00000000 0.00512500
v 0.00700000 0.00050000 0.00462500
v 0.00850000 0.00250000 0.00462500
v 0.00700000 0.00300000 0.00462500
v 0.00700000 0.00350000 -0.00712500
v 0.00650000 0.00337500 -0.00600000
v 0.00650000 0.00350000 0.00462500
v 0.00700000 0.00350000 0.00412500
v 0.00687500 0.00400000 -0.00050000
v 0.00687500 0.00400000 0.00000000
v 0.00687500 0.00450000 -0.00050000
v 0.00687500 0.00450000 0.00350000
v 0.00687500 0.00450000 0.00050000
v 0.00687500 0.00550000 0.00500000
v 0.00687500 0.00650000 0.00000000
v 0.00687500 0.00500000 0.00400000
v 0.00687500 0.00550000 0.00450000
v 0.00687500 0.00650000 -0.00200000
v 0.00687500 0.00700000 0.00350000
v 0.00687500 0.00650000 0.00500000
v 0.00650000 0.00662500 -0.00250000
v 0.00700000 0.00662500 -0.00200000
v 0.00700000 0.00662500 -0.00000000
v 0.00687500 0.00700000 0.00050000
v 0.00687500 0.00700000 0.00450000
v 0.00700000 0.00700000 0.00462500
v 0.00700000 0.00650000 0.00512500
v 0.00700000 0.00712500 0.00050000
v 0.00687500 0.00750000 0.00400000
v 0.00700000 0.00750000 0.00387500
v 0.00687500 0.00750000 0.00450000
v 0.00700000 0.00758333 0.00400000
v 0.00700000 0.00758333 0.00450000
v 0.00600000 -0.00562500 -0.00450000
v 0.00762500 -0.00500000 -0.00050000
v 0.00712500 -0.00500000 0.00050000
v 0.00712500 -0.00500000 0.00000000
v 0.00762500 -0.00450000 0.00000000
v 0.00750000 -0.00462500 0.00150000
v 0.00712500 -0.00450000 0.00050000
v 0.00800000 -0.00412500 0.00350000
v 0.00750000 -0.00400000 0.00558333
v 0.00750000 -0.00350000 0.00558333
v 0.00750000 -0.00337500 0.00550000
v 0.00750000 -0.00250000 -0.00512500
v 0.00700000 0.00050000 -0.00562500
v 0.00750000 0.00050000 0.00462500
v 0.00800000 0.00350000 0.00412500
v 0.00650000 0.00550000 -0.00712500
v 0.00700000 0.00537500 0.00450000
v 0.00650000 0.00562500 -0.00600000
v 0.00850000 0.00612500 -0.00300000
v 0.00650000 0.00612500 -0.00300000
v 0.00800000 0.00662500 0.00000000
v 0.00750000 0.00700000 0.00462500
v 0.00700000 0.00750000 0.00462500
v 0.00900000 -0.00550000 -0.00462500
v 0.00900000 -0.00562500 -0.00450000
v 0.00650000 -0.00562500 -0.00200000
v 0.00650000 -0.00512500 -0.00150000
v 0.00850000 -0.00512500 -0.00150000
v 0.00762500 -0.00450000 -0.00050000
v 0.00800000 -0.00450000 -0.00087500
v 0.00750000 -0.00462500 0.00100000
v 0.00800000 -0.00462500 0.00200000
v 0.00800000 -0.00412500 -0.00050000
v 0.00800000 -0.00412500 0.00000000
v 0.00800000 -0.00400000 0.00087500
v 0.00800000 -0.00412500 0.00100000
v 0.00800000 -0.00412500 0.00150000
v 0.00800000 -0.00350000 -0.00037500
v 0.00762500 -0.00400000 0.00050000
v 0.00800000 -0.00300000 -0.00512500
v 0.00762500 -0.00350000 -0.00000000
v 0.00850000 -0.00337500 0.00550000
v 0.00750000 -0.00300000 0.00512500
v 0.00600000 0.00050000 -0.00512500
v 0.00800000 -0.00250000 0.00087500
v 0.00800000 -0.00200000 -0.00037500
v 0.00762500 -0.00200000 -0.00000000
v 0.00762500 -0.00250000 0.00050000
v 0.00762500 -0.00150000 -0.00050000
v 0.00800000 -0.00150000 -0.00087500
v 0.00762500 -0.00100000 0.00000000
v 0.00800000 -0.00150000 0.00037500
v 0.00762500 -0.00100000 -0.00050000
v 0.00800000 -0.00100000 -0.00087500
v 0.00800000 -0.00100000 0.00037500
v 0.00800000 -0.00050000 0.00512500
v 0.00800000 -0.00062500 -0.00050000
v 0.00800000 -0.00062500 0.00000000
v 0.00800000 -0.00000000 -0.00512500
v 0.00750000 0.00000000 0.00512500
v 0.00800000 0.00000000 0.00462500
v 0.00800000 0.00050000 -0.00562500
v 0.00800000 0.00300000 0.00462500
v 0.00800000 0.00300000 -0.00562500
v 0.00700000 0.00337500 -0.00700000
v 0.00700000 0.00500000 0.00412500
v 0.00900000 0.00500000 0.00412500
v 0.00650000 0.00562500 -0.00700000
v 0.01000000 0.00612500 -0.00500000
v 0.00750000 0.00650000 0.00512500
v 0.00800000 0.00650000 0.00462500
v 0.00850000 0.00662500 -0.00250000
v 0.00893750 0.00750000 0.00462500
v 0.00800000 0.00712500 0.00050000
v 0.00950000 -0.00512500 -0.00450000
v 0.00650000 -0.00300000 -0.00462500
v 0.00800000 -0.00500000 -0.00087500
v 0.00800000 -0.00350000 -0.00462500
v 0.00850000 -0.00450000 -0.00087500
v 0.00850000 -0.00412500 -0.00050000
v 0.00850000 -0.00400000 -0.00037500
v 0.00850000 -0.00412500 0.00150000
v 0.00850000 -0.00412500 0.00350000
v 0.00850000 -0.00412500 0.00550000
v 0.00850000 -0.00400000 0.00558333
v 0.00850000 -0.00350000 -0.00462500
v 0.00850000 -0.00350000 0.00087500
v 0.00850000 -0.00350000 0.00558333
v 0.00850000 -0.00300000 -0.00512500
v 0.00850000 -0.00300000 0.00512500
v 0.00700000 -0.00000000 -0.00512500
v 0.00850000 -0.00300000 0.00087500
v 0.00850000 -0.00250000 -0.00037500
v 0.00850000 -0.00200000 -0.00087500
v 0.00850000 -0.00200000 0.00087500
v 0.00850000 -0.00100000 -0.00087500
v 0.00850000 -0.00150000 0.00087500
v 0.00850000 -0.00100000 0.00037500
v 0.00850000 -0.00062500 -0.00050000
v 0.00850000 -0.00050000 0.00037500
v 0.00850000 -0.00000000 -0.00562500
v 0.00850000 -0.00012500 0.00000000
v 0.00850000 -0.00000000 0.00462500
v 0.00650000 0.00300000 -0.00562500
v 0.00800000 0.00337500 -0.00600000
v 0.00850000 0.00300000 0.00412500
v 0.00900000 0.00537500 0.00450000
v 0.00700000 0.00537500 0.00500000
v 0.00800000 0.00600000 0.00512500
v 0.00950000 0.00612500 -0.00550000
v 0.00900000 0.00650000 0.00462500
v 0.00850000 0.00712500 0.00100000
v 0.00850000 0.00662500 0.00050000
v 0.01100000 0.00758333 0.00450000
v 0.00950000 -0.00512500 -0.00150000
v 0.00900000 -0.00462500 -0.00100000
v 0.00900000 -0.00462500 0.00200000
v 0.00900000 -0.00462500 0.00250000
v 0.00850000 -0.00462500 0.00300000
v 0.00950000 -0.00412500 0.00250000
v 0.00900000 -0.00400000 -0.00037500
v 0.00900000 -0.00412500 0.00500000
v 0.00862500 -0.00400000 0.00550000
v 0.00900000 -0.00400000 0.00512500
v 0.00900000 -0.00400000 -0.00462500
v 0.00900000 -0.00350000 -0.00512500
v 0.00900000 -0.00350000 0.00087500
v 0.00862500 -0.00350000 0.00550000
v 0.00900000 -0.00350000 0.00512500
v 0.00900000 -0.00300000 -0.00037500
v 0.00887500 -0.00300000 0.00050000
v 0.00887500 -0.00250000 0.00000000
v 0.00887500 -0.00200000 -0.00050000
v 0.00887500 -0.00150000 0.00050000
v 0.00900000 -0.00100000 0.00512500
v 0.00887500 -0.00100000 -0.00050000
v 0.00887500 -0.00100000 0.00000000
v 0.00900000 -0.00050000 -0.00512500
v 0.00887500 -0.00050000 0.00000000
v 0.00850000 -0.00050000 0.00512500
v 0.00900000 -0.00000000 -0.00562500
v 0.00900000 0.00300000 0.00412500
v 0.00950000 0.00537500 0.00500000
v 0.00700000 0.00550000 0.00512500
v 0.00950000 0.00562500 -0.00600000
v 0.00900000 0.00662500 -0.00200000
v 0.00700000 0.00712500 0.00350000
v 0.00950000 -0.00462500 -0.00100000
v 0.00950000 -0.00462500 -0.00050000
v 0.00950000 -0.00412500 0.00000000
v 0.00937500 -0.00400000 0.00000000
v 0.00937500 -0.00350000 0.00050000
v 0.00900000 -0.00412500 0.00150000
v 0.00950000 -0.00412500 0.00200000
v 0.01000000 -0.00400000 -0.00462500
v 0.00937500 -0.00300000 -0.00000000
v 0.00950000 -0.00050000 -0.00562500
v 0.00900000 -0.00050000 0.00462500
v 0.00950000 0.00200000 0.00462500
v 0.00950000 0.00250000 -0.00562500
v 0.00900000 0.00250000 0.00462500
v 0.00950000 0.00250000 0.00412500
v 0.00950000 0.00300000 -0.00612500
v 0.00950000 0.00450000 0.00412500
v 0.00950000 0.00550000 0.00512500
v 0.00900000 0.00600000 0.00512500
v 0.01100000 0.00712500 0.00100000
v 0.00875000 0.00750000 0.00387500
v 0.01000000 -0.00512500 -0.00200000
v 0.01000000 -0.00462500 -0.00150000
v 0.01000000 -0.00462500 -0.00050000
v 0.01000000 -0.00412500 0.00000000
v 0.01000000 -0.00412500 0.00050000
v 0.01000000 -0.00400000 0.00512500
v 0.01000000 -0.00350000 -0.00512500
v 0.01050000 -0.00150000 0.00512500
v 0.01000000 -0.00100000 0.00512500
v 0.01050000 -0.00100000 -0.00512500
v 0.01000000 -0.00050000 0.00462500
v 0.00850000 0.00250000 -0.00562500
v 0.01000000 0.00250000 -0.00612500
v 0.01050000 0.00250000 0.00412500
v 0.00925000 0.00337500 -0.00700000
v 0.00875000 0.00550000 -0.00712500
v 0.00950000 0.00500000 0.00462500
v 0.01000000 0.00550000 0.00462500
v 0.01050000 0.00562500 -0.00700000
v 0.00900000 0.00612500 -0.00250000
v 0.01100000 0.00662500 0.00050000
v 0.01050000 0.00750000 0.00387500
v 0.01100000 0.00750000 0.00462500
v 0.01050000 0.00758333 0.00400000
v 0.01050000 -0.00462500 0.00000000
v 0.01050000 -0.00462500 0.00100000
v 0.01000000 -0.00412500 0.00100000
v 0.01050000 -0.00450000 -0.00462500
v 0.01050000 -0.00400000 -0.00512500
v 0.01050000 -0.00412500 0.00150000
v 0.01000000 -0.00412500 0.00500000
v 0.00850000 -0.00050000 -0.00512500
v 0.01050000 -0.00362500 0.00500000
v 0.01050000 -0.00100000 0.00462500
v 0.01050000 -0.00050000 -0.00562500
v 0.01050000 0.00200000 0.00462500
v 0.01100000 0.00200000 -0.00562500
v 0.01050000 0.00550000 -0.00712500
v 0.01000000 0.00562500 -0.00550000
v 0.01150000 0.00700000 0.00462500
v 0.00950000 -0.00500000 -0.00462500
v 0.01050000 -0.00512500 -0.00200000
v 0.01100000 -0.00450000 -0.00462500
v 0.01050000 -0.00462500 -0.00150000
v 0.01100000 -0.00400000 -0.00512500
v 0.01150000 -0.00412500 0.00350000
v 0.00950000 -0.00100000 -0.00512500
v 0.01100000 -0.00100000 -0.00562500
v 0.01100000 -0.00100000 0.00462500
v 0.01100000 0.00150000 0.00462500
v 0.01100000 0.00200000 0.00412500
v 0.01100000 0.00250000 -0.00612500
v 0.01100000 0.00550000 -0.00758333
v 0.01087500 0.00550000 -0.00750000
v 0.01100000 0.00562500 -0.00750000
v 0.01200000 0.00662500 -0.00200000
v 0.01150000 0.00712500 0.00150000
v 0.01112500 0.00750000 0.00450000
v 0.01200000 -0.00462500 -0.00300000
v 0.01150000 -0.00500000 -0.00462500
v 0.01150000 -0.00450000 -0.00512500
v 0.01150000 -0.00362500 0.00400000
v 0.01150000 -0.00200000 0.00512500
v 0.01150000 -0.00150000 -0.00512500
v 0.01100000 -0.00150000 0.00512500
v 0.01150000 -0.00100000 -0.00562500
v 0.01000000 0.00200000 -0.00562500
v 0.01300000 0.00100000 0.00462500
v 0.01150000 0.00200000 -0.00612500
v 0.01150000 0.00200000 0.00412500
v 0.01218750 0.00350000 -0.00712500
v 0.00850000 0.00337500 -0.00650000
v 0.01250000 0.00450000 0.00412500
v 0.01150000 0.00500000 -0.00758333
v 0.01150000 0.00487500 -0.00750000
v 0.01300000 0.00612500 -0.00450000
v 0.01150000 0.00662500 0.00100000
v 0.01200000 -0.00512500 -0.00350000
v 0.01250000 -0.00512500 -0.00450000
v 0.01200000 -0.00412500 0.00350000
v 0.01200000 -0.00362500 0.00400000
v 0.01200000 -0.00200000 -0.00512500
v 0.01200000 -0.00150000 -0.00562500
v 0.01150000 -0.00150000 0.00462500
v 0.01200000 0.00100000 0.00462500
v 0.01200000 0.00150000 -0.00562500
v 0.01150000 0.00150000 0.00462500
v 0.01200000 0.00150000 0.00412500
v 0.01200000 0.00200000 -0.00612500
v 0.01150000 0.00450000 -0.00712500
v 0.01200000 0.00450000 -0.00712500
v 0.01200000 0.00500000 -0.00758333
v 0.01200000 0.00487500 -0.00750000
v 0.01228125 0.00500000 0.00462500
v 0.01200000 0.00550000 -0.00758333
v 0.01250000 0.00612500 -0.00500000
v 0.01050000 0.00712500 0.00350000
v 0.01250000 -0.00450000 -0.00512500
v 0.01250000 -0.00462500 -0.00300000
v 0.01100000 -0.00462500 0.00100000
v 0.01250000 -0.00412500 0.00250000
v 0.01200000 -0.00412500 0.00300000
v 0.01250000 -0.00362500 0.00300000
v 0.01250000 -0.00200000 0.00512500
v 0.01250000 -0.00200000 -0.00512500
v 0.01250000 -0.00150000 -0.00562500
v 0.01250000 -0.00150000 0.00462500
v 0.01150000 0.00150000 -0.00562500
v 0.01250000 0.00150000 -0.00612500
v 0.01300000 0.00400000 0.00412500
v 0.01600000 0.00337500 -0.00650000
v 0.01250000 0.00400000 -0.00712500
v 0.01250000 0.00450000 -0.00758333
v 0.01250000 0.00437500 -0.00750000
v 0.01250000 0.00500000 -0.00763388
v 0.01250000 0.00550000 -0.00758333
v 0.01250000 0.00562500 -0.00550000
v 0.01200000 0.00612500 -0.00250000
v 0.01250000 0.00662500 -0.00150000
v 0.01400000 0.00712500 0.00450000
v 0.01150000 0.00712500 0.00450000
v 0.01300000 -0.00500000 -0.00512500
v 0.01300000 -0.00512500 -0.00500000
v 0.01250000 -0.00512500 -0.00350000
v 0.01400000 -0.00462500 -0.00200000
v 0.01100000 -0.00412500 0.00150000
v 0.01250000 -0.00362500 0.00350000
v 0.01050000 -0.00350000 0.00512500
v 0.01300000 -0.00250000 -0.00512500
v 0.01300000 -0.00200000 -0.00562500
v 0.01300000 -0.00250000 0.00512500
v 0.01300000 -0.00200000 0.00462500
v 0.01250000 0.00100000 -0.00562500
v 0.01350000 0.00100000 -0.00562500
v 0.01300000 0.00150000 0.00412500
v 0.01350000 0.00400000 -0.00712500
v 0.01300000 0.00450000 -0.00758333
v 0.01300000 0.00450000 0.00362500
v 0.01300000 0.00500000 -0.00768750
v 0.01300000 0.00487500 0.00400000
v 0.01400000 0.00712500 0.00150000
v 0.01350000 -0.00500000 -0.00512500
v 0.01350000 -0.00512500 -0.00450000
v 0.01400000 -0.00462500 -0.00450000
v 0.01100000 -0.00150000 -0.00512500
v 0.01300000 -0.00412500 0.00250000
v 0.01300000 -0.00362500 0.00300000
v 0.01400000 -0.00362500 0.00500000
v 0.01400000 -0.00250000 -0.00512500
v 0.01350000 -0.00200000 0.00462500
v 0.01350000 0.00050000 0.00462500
v 0.01350000 0.00100000 0.00412500
v 0.01350000 0.00150000 -0.00612500
v 0.01400000 0.00350000 0.00412500
v 0.01350000 0.00400000 0.00412500
v 0.01350000 0.00450000 -0.00758333
v 0.01350000 0.00437500 -0.00750000
v 0.01350000 0.00500000 -0.00768750
v 0.01600000 0.00550000 -0.00758333
v 0.01412500 0.00562500 -0.00750000
v 0.01250000 0.00612500 -0.00200000
v 0.01400000 0.00662500 0.00100000
v 0.01350000 -0.00512500 -0.00500000
v 0.01400000 -0.00412500 -0.00150000
v 0.01400000 -0.00412500 0.00150000
v 0.01400000 -0.00362500 0.00200000
v 0.01400000 -0.00350000 0.00512500
v 0.01400000 -0.00300000 0.00512500
v 0.01350000 -0.00250000 0.00512500
v 0.01400000 0.00100000 -0.00612500
v 0.01250000 0.00300000 -0.00612500
v 0.01400000 0.00350000 -0.00712500
v 0.01400000 0.00400000 -0.00758333
v 0.01400000 0.00387500 -0.00750000
v 0.01400000 0.00400000 0.00362500
v 0.01400000 0.00450000 -0.00763388
v 0.01400000 0.00500000 -0.00768750
v 0.01300000 0.00562500 -0.00500000
v 0.01456250 0.00612500 -0.00450000
v 0.01500000 0.00662500 -0.00150000
v 0.01400000 0.00700000 0.00462500
v 0.01400000 -0.00462500 -0.00500000
v 0.01575000 -0.00462500 -0.00500000
v 0.01450000 -0.00412500 -0.00150000
v 0.01450000 -0.00312500 0.00500000
v 0.01450000 -0.00300000 0.00512500
v 0.01450000 -0.00250000 -0.00562500
v 0.01400000 -0.00250000 0.00462500
v 0.01400000 -0.00200000 -0.00562500
v 0.01400000 0.00050000 -0.00562500
v 0.01450000 0.00050000 0.00462500
v 0.01450000 0.00050000 -0.00562500
v 0.01450000 0.00100000 -0.00612500
v 0.01450000 0.00100000 0.00412500
v 0.01450000 0.00337500 -0.00700000
v 0.01450000 0.00400000 -0.00758333
v 0.01450000 0.00387500 -0.00750000
v 0.01450000 0.00400000 0.00362500
v 0.01450000 0.00450000 -0.00768750
v 0.01350000 0.00450000 0.00362500
v 0.01450000 0.00500000 -0.00768750
v 0.01600000 0.00562500 -0.00500000
v 0.01450000 0.00662500 0.00150000
v 0.01450000 0.00650000 0.00462500
v 0.01450000 -0.00300000 -0.00512500
v 0.01650000 -0.00412500 -0.00050000
v 0.01450000 -0.00362500 0.00200000
v 0.01500000 -0.00362500 0.00400000
v 0.01500000 -0.00312500 0.00450000
v 0.01500000 -0.00300000 -0.00512500
v 0.01500000 -0.00312500 0.00500000
v 0.01500000 -0.00300000 0.00512500
v 0.01500000 -0.00250000 -0.00562500
v 0.01500000 0.00000000 0.00462500
v 0.01500000 0.00050000 -0.00612500
v 0.01500000 0.00050000 0.00412500
v 0.01600000 0.00300000 0.00412500
v 0.01500000 0.00300000 0.00412500
v 0.01500000 0.00350000 -0.00758333
v 0.01500000 0.00337500 -0.00750000
v 0.01550000 0.00337500 -0.00700000
v 0.01450000 0.00350000 0.00412500
v 0.01500000 0.00350000 0.00362500
v 0.01500000 0.00400000 -0.00763388
v 0.01500000 0.00450000 -0.00770492
v 0.01500000 0.00500000 -0.00768750
v 0.01650000 0.00562500 -0.00750000
v 0.01500000 0.00612500 -0.00200000
v 0.01700000 0.00662500 0.00150000
v 0.01450000 0.00712500 0.00400000
v 0.01450000 -0.00462500 -0.00200000
v 0.01650000 -0.00412500 -0.00350000
v 0.01450000 -0.00412500 0.00150000
v 0.01650000 -0.00362500 0.00000000
v 0.01550000 -0.00350000 -0.00512500
v 0.01550000 -0.00300000 -0.00562500
v 0.01550000 -0.00312500 0.00450000
v 0.01500000 0.00000000 -0.00562500
v 0.01500000 -0.00250000 0.00462500
v 0.01550000 0.00050000 -0.00612500
v 0.01550000 0.00000000 -0.00562500
v 0.01550000 0.00050000 0.00412500
v 0.01550000 0.00350000 -0.00758333
v 0.01550000 0.00337500 -0.00750000
v 0.01600000 0.00350000 0.00362500
v 0.01550000 0.00400000 -0.00768750
v 0.01550000 0.00450000 -0.00774112
v 0.01550000 0.00650000 0.00462500
v 0.01550000 0.00612500 -0.00150000
v 0.01650000 -0.00462500 -0.00400000
v 0.01650000 -0.00350000 -0.00512500
v 0.01650000 -0.00050000 0.00462500
v 0.01600000 -0.00050000 0.00462500
v 0.01600000 -0.00000000 -0.00612500
v 0.01550000 0.00000000 0.00462500
v 0.01600000 0.00000000 0.00412500
v 0.01600000 0.00300000 -0.00758333
v 0.01600000 0.00350000 -0.00763388
v 0.01600000 0.00400000 -0.00770492
v 0.01600000 0.00450000 -0.00774112
v 0.01600000 0.00500000 -0.00768750
v 0.01650000 0.00562500 -0.00450000
v 0.01600000 0.00612500 -0.00450000
v 0.01600000 0.00600000 0.00462500
v 0.01600000 0.00650000 0.00412500
v 0.01750000 0.00712500 0.00250000
v 0.01700000 -0.00462500 -0.00450000
v 0.01700000 -0.00412500 -0.00350000
v 0.01700000 -0.00412500 -0.00100000
v 0.01750000 -0.00362500 0.00150000
v 0.01550000 -0.00362500 0.00400000
v 0.01800000 -0.00312500 0.00400000
v 0.01700000 -0.00050000 -0.00562500
v 0.01600000 0.00287500 -0.00700000
v 0.01650000 0.00250000 0.00412500
v 0.01650000 0.00300000 0.00362500
v 0.01650000 0.00337500 -0.00650000
v 0.01650000 0.00400000 -0.00774112
v 0.01700000 0.00450000 0.00362500
v 0.01650000 0.00450000 -0.00770492
v 0.01650000 0.00500000 -0.00763388
v 0.01250000 0.00487500 0.00450000
v 0.01512500 0.00500000 0.00462500
v 0.01650000 0.00550000 -0.00758333
v 0.01850000 0.00562500 -0.00450000
v 0.01650000 0.00650000 0.00412500
v 0.01550000 0.00662500 -0.00100000
v 0.01550000 0.00700000 0.00412500
v 0.01450000 0.00712500 0.00200000
v 0.01400000 -0.00450000 -0.00512500
v 0.01700000 -0.00462500 -0.00400000
v 0.01700000 -0.00412500 -0.00050000
v 0.01700000 -0.00400000 -0.00512500
v 0.01700000 -0.00350000 -0.00562500
v 0.01700000 -0.00362500 -0.00000000
v 0.01750000 -0.00362500 0.00200000
v 0.01650000 -0.00300000 -0.00562500
v 0.01550000 -0.00300000 0.00462500
v 0.01600000 -0.00050000 -0.00562500
v 0.01700000 -0.00100000 0.00462500
v 0.01700000 -0.00000000 -0.00612500
v 0.01700000 -0.00050000 0.00412500
v 0.01650000 -0.00000000 0.00412500
v 0.01650000 0.00300000 -0.00612500
v 0.01600000 0.00287500 -0.00750000
v 0.01662500 0.00300000 -0.00600000
v 0.01700000 0.00262500 -0.00600000
v 0.01662500 0.00300000 -0.00400000
v 0.01700000 0.00300000 0.00362500
v 0.01700000 0.00337500 -0.00600000
v 0.01700000 0.00337500 -0.00400000
v 0.01662500 0.00350000 -0.00350000
v 0.01662500 0.00350000 -0.00100000
v 0.01700000 0.00362500 -0.00050000
v 0.01700000 0.00400000 -0.00774112
v 0.01700000 0.00387500 -0.00100000
v 0.01662500 0.00400000 -0.00050000
v 0.01700000 0.00362500 0.00050000
v 0.01662500 0.00400000 0.00050000
v 0.01700000 0.00437500 -0.00050000
v 0.01700000 0.00437500 0.00050000
v 0.01700000 0.00487500 0.00400000
v 0.01700000 0.00512500 -0.00750000
v 0.01700000 0.00562500 -0.00700000
v 0.01650000 0.00600000 0.00462500
v 0.01800000 0.00612500 -0.00150000
v 0.01800000 0.00662500 -0.00100000
v 0.01700000 0.00712500 0.00200000
v 0.01750000 -0.00450000 -0.00512500
v 0.01750000 -0.00462500 -0.00500000
v 0.01750000 -0.00412500 -0.00450000
v 0.01750000 -0.00400000 -0.00512500
v 0.01750000 -0.00412500 -0.00400000
v 0.01750000 -0.00412500 -0.00150000
v 0.01750000 -0.00362500 -0.00100000
v 0.01750000 -0.00350000 -0.00562500
v 0.01750000 -0.00362500 -0.00050000
v 0.01800000 -0.00312500 0.00200000
v 0.01750000 -0.00050000 -0.00612500
v 0.01750000 0.00200000 0.00412500
v 0.01700000 0.00250000 0.00412500
v 0.01750000 0.00250000 0.00362500
v 0.01700000 0.00312500 -0.00350000
v 0.01700000 0.00262500 -0.00400000
v 0.01650000 0.00350000 -0.00768750
v 0.01750000 0.00312500 -0.00300000
v 0.01800000 0.00312500 -0.00200000
v 0.01700000 0.00312500 -0.00100000
v 0.01750000 0.00362500 0.00000000
v 0.01800000 0.00350000 0.00362500
v 0.01700000 0.00387500 -0.00350000
v 0.01750000 0.00387500 -0.00050000
v 0.01712500 0.00400000 0.00100000
v 0.01750000 0.00362500 0.00100000
v 0.01712500 0.00400000 0.00200000
v 0.01750000 0.00362500 0.00200000
v 0.01700000 0.00450000 -0.00768750
v 0.01750000 0.00437500 -0.00000000
v 0.01750000 0.00437500 0.00200000
v 0.01712500 0.00450000 0.00300000
v 0.01750000 0.00412500 0.00300000
v 0.01750000 0.00450000 0.00262500
v 0.01712500 0.00450000 0.00350000
v 0.01700000 0.00500000 -0.00758333
v 0.01750000 0.00487500 0.00350000
v 0.01700000 0.00550000 0.00462500
v 0.01650000 0.00612500 -0.00400000
v 0.01700000 0.00600000 0.00412500
v 0.01750000 0.00662500 0.00200000
v 0.01762500 -0.00450000 -0.00500000
v 0.01800000 -0.00400000 -0.00562500
v 0.01800000 -0.00412500 -0.00550000
v 0.01800000 -0.00412500 -0.00500000
v 0.01800000 -0.00412500 -0.00250000
v 0.01750000 -0.00412500 -0.00200000
v 0.01800000 -0.00362500 -0.00200000
v 0.01800000 -0.00362500 -0.00150000
v 0.01850000 -0.00312500 0.00100000
v 0.01800000 -0.00312500 0.00150000
v 0.01800000 -0.00312500 0.00450000
v 0.01800000 -0.00300000 0.00462500
v 0.01800000 -0.00100000 0.00462500
v 0.01800000 -0.00100000 -0.00562500
v 0.01800000 -0.00050000 0.00412500
v 0.01800000 0.00200000 -0.00612500
v 0.01850000 0.00200000 0.00412500
v 0.01800000 0.00212500 -0.00600000
v 0.01750000 0.00212500 -0.00600000
v 0.01650000 0.00300000 -0.00758333
v 0.01800000 0.00262500 -0.00500000
v 0.01800000 0.00262500 -0.00350000
v 0.01800000 0.00262500 -0.00300000
v 0.01750000 0.00312500 -0.00250000
v 0.01800000 0.00262500 -0.00250000
v 0.01850000 0.00350000 -0.00768750
v 0.01800000 0.00337500 -0.00400000
v 0.01800000 0.00312500 -0.00000000
v 0.01750000 0.00362500 0.00050000
v 0.01800000 0.00312500 0.00050000
v 0.01800000 0.00387500 -0.00350000
v 0.01800000 0.00362500 0.00100000
v 0.01762500 0.00400000 0.00250000
v 0.01800000 0.00362500 0.00250000
v 0.01800000 0.00362500 0.00350000
v 0.01750000 0.00437500 0.00100000
v 0.01800000 0.00437500 0.00250000
v 0.01800000 0.00450000 0.00262500
v 0.01750000 0.00487500 0.00300000
v 0.01850000 0.00487500 0.00450000
v 0.01762500 0.00500000 0.00462500
v 0.01900000 0.00612500 -0.00350000
v 0.01850000 -0.00400000 -0.00562500
v 0.01850000 -0.00412500 -0.00550000
v 0.01800000 -0.00412500 -0.00450000
v 0.01900000 -0.00362500 -0.00500000
v 0.01750000 -0.00100000 -0.00562500
v 0.01850000 -0.00362500 -0.00450000
v 0.01850000 -0.00362500 -0.00250000
v 0.01800000 -0.00362500 -0.00000000
v 0.01800000 -0.00362500 0.00100000
v 0.01850000 -0.00312500 -0.00000000
v 0.01850000 -0.00312500 0.00350000
v 0.01850000 -0.00262500 0.00400000
v 0.01850000 -0.00262500 0.00450000
v 0.01850000 -0.00250000 0.00462500
v 0.01850000 -0.00150000 -0.00562500
v 0.01850000 -0.00100000 -0.00612500
v 0.01850000 -0.00150000 0.00462500
v 0.01850000 -0.00100000 0.00412500
v 0.01800000 -0.00050000 -0.00612500
v 0.01850000 0.00150000 -0.00612500
v 0.01850000 0.00162500 -0.00600000
v 0.01850000 0.00212500 -0.00550000
v 0.01850000 0.00212500 -0.00500000
v 0.01850000 0.00212500 -0.00350000
v 0.01900000 0.00212500 -0.00300000
v 0.01850000 0.00250000 0.00362500
v 0.01900000 0.00287500 -0.00700000
v 0.01850000 0.00262500 -0.00300000
v 0.01850000 0.00262500 -0.00200000
v 0.01850000 0.00262500 -0.00100000
v 0.01800000 0.00312500 -0.00100000
v 0.01900000 0.00337500 -0.00650000
v 0.01850000 0.00337500 -0.00350000
v 0.01850000 0.00312500 -0.00050000
v 0.01850000 0.00312500 0.00100000
v 0.01800000 0.00362500 0.00150000
v 0.01850000 0.00312500 0.00150000
v 0.01900000 0.00350000 0.00362500
v 0.01850000 0.00400000 -0.00774112
v 0.01950000 0.00387500 -0.00050000
v 0.01950000 0.00437500 -0.00000000
v 0.01850000 0.00362500 0.00200000
v 0.01900000 0.00362500 0.00350000
v 0.01850000 0.00450000 -0.00768750
v 0.01900000 0.00500000 -0.00758333
v 0.01850000 0.00500000 0.00462500
v 0.01800000 0.00550000 0.00462500
v 0.01900000 0.00500000 0.00412500
v 0.01950000 0.00562500 -0.00700000
v 0.01800000 0.00600000 0.00412500
v 0.01850000 0.00612500 -0.00400000
v 0.01850000 0.00612500 -0.00100000
v 0.01850000 0.00662500 -0.00050000
v 0.01793750 0.00700000 0.00412500
v 0.01850000 -0.00412500 -0.00500000
v 0.01900000 -0.00350000 -0.00562500
v 0.01900000 -0.00362500 -0.00450000
v 0.01900000 -0.00300000 -0.00562500
v 0.01962500 -0.00250000 -0.00150000
v 0.01850000 -0.00362500 -0.00050000
v 0.01900000 -0.00312500 0.00100000
v 0.01900000 -0.00250000 0.00462500
v 0.01950000 -0.00150000 -0.00562500
v 0.01900000 -0.00150000 0.00462500
v 0.01900000 -0.00100000 0.00412500
v 0.01750000 0.00200000 -0.00612500
v 0.01900000 0.00100000 -0.00612500
v 0.01900000 0.00150000 -0.00612500
v 0.01900000 0.00162500 -0.00600000
v 0.01900000 0.00162500 -0.00550000
v 0.01850000 0.00212500 -0.00400000
v 0.01900000 0.00200000 0.00362500
v 0.01900000 0.00212500 -0.00350000
v 0.01900000 0.00262500 -0.00150000
v 0.01900000 0.00300000 -0.00758333
v 0.01900000 0.00287500 -0.00750000
v 0.01850000 0.00312500 0.00050000
v 0.01900000 0.00312500 0.00100000
v 0.01900000 0.00350000 -0.00763388
v 0.01900000 0.00312500 0.00200000
v 0.01850000 0.00362500 0.00300000
v 0.01900000 0.00312500 0.00300000
v 0.01900000 0.00400000 -0.00768750
v 0.01850000 0.00387500 -0.00300000
v 0.01900000 0.00450000 -0.00768750
v 0.01900000 0.00437500 0.00250000
v 0.01900000 0.00487500 0.00300000
v 0.01950000 0.00512500 -0.00750000
v 0.01900000 0.00562500 -0.00400000
v 0.01950000 0.00612500 -0.00350000
v 0.01912500 -0.00350000 -0.00550000
v 0.01912500 -0.00350000 -0.00450000
v 0.01912500 -0.00300000 0.00100000
v 0.01950000 -0.00250000 -0.00562500
v 0.01912500 -0.00300000 -0.00550000
v 0.01912500 -0.00300000 -0.00400000
v 0.01850000 -0.00362500 -0.00400000
v 0.01900000 -0.00312500 -0.00050000
v 0.01912500 -0.00300000 0.00050000
v 0.01962500 -0.00250000 0.00050000
v 0.01850000 -0.00312500 0.00150000
v 0.01900000 -0.00262500 0.00450000
v 0.01912500 -0.00250000 0.00100000
v 0.01900000 -0.00262500 0.00350000
v 0.01962500 -0.00200000 0.00400000
v 0.01962500 -0.00200000 0.00450000
v 0.01950000 -0.00200000 0.00462500
v 0.01950000 -0.00187500 0.00450000
v 0.01950000 -0.00150000 0.00412500
v 0.01950000 -0.00100000 -0.00612500
v 0.01900000 0.00150000 0.00412500
v 0.01950000 0.00050000 -0.00612500
v 0.01912500 0.00100000 -0.00600000
v 0.01912500 0.00100000 -0.00550000
v 0.01912500 0.00150000 -0.00600000
v 0.01912500 0.00150000 -0.00500000
v 0.01912500 0.00150000 -0.00400000
v 0.01912500 0.00150000 -0.00350000
v 0.01912500 0.00200000 -0.00350000
v 0.01912500 0.00200000 -0.00300000
v 0.01912500 0.00200000 -0.00200000
v 0.01912500 0.00200000 -0.00150000
v 0.01950000 0.00200000 0.00362500
v 0.01912500 0.00250000 -0.00150000
v 0.01962500 0.00200000 -0.00100000
v 0.01912500 0.00250000 -0.00100000
v 0.01900000 0.00262500 -0.00050000
v 0.01962500 0.00200000 0.00050000
v 0.01950000 0.00287500 -0.00700000
v 0.01950000 0.00287500 -0.00650000
v 0.01900000 0.00312500 0.00250000
v 0.01962500 0.00250000 0.00250000
v 0.01962500 0.00350000 -0.00750000
v 0.01950000 0.00337500 -0.00600000
v 0.01950000 0.00337500 -0.00350000
v 0.01950000 0.00312500 0.00300000
v 0.01950000 0.00312500 0.00350000
v 0.01950000 0.00350000 -0.00758333
v 0.01950000 0.00387500 -0.00300000
v 0.01950000 0.00450000 -0.00758333
v 0.02000000 0.00437500 0.00050000
v 0.01950000 0.00437500 0.00300000
v 0.01950000 0.00487500 0.00350000
v 0.01950000 0.00500000 -0.00758333
v 0.01900000 0.00487500 0.00400000
v 0.01950000 0.00562500 -0.00400000
v 0.02000000 0.00500000 0.00412500
v 0.01950000 0.00612500 -0.00100000
v 0.01950000 0.00662500 -0.00050000
v 0.02000000 0.00662500 0.00200000
v 0.02000000 0.00712500 0.00400000
v 0.01962500 -0.00250000 -0.00262500
v 0.01962500 -0.00250000 -0.00550000
v 0.01962500 -0.00150000 -0.00550000
v 0.01962500 -0.00200000 -0.00250000
v 0.01962500 -0.00200000 0.00100000
v 0.01912500 -0.00250000 0.00150000
v 0.02000000 -0.00150000 0.00412500
v 0.01962500 -0.00150000 -0.00450000
v 0.01962500 -0.00150000 -0.00300000
v 0.01962500 -0.00100000 -0.00500000
v 0.01962500 0.00050000 -0.00350000
v 0.02012500 -0.00100000 -0.00450000
v 0.02000000 0.00000000 0.00412500
v 0.01962500 0.00050000 -0.00600000
v 0.01962500 0.00050000 -0.00550000
v 0.01962500 -0.00100000 -0.00600000
v 0.02012500 0.00000000 -0.00350000
v 0.01962500 0.00050000 -0.00300000
v 0.01962500 0.00100000 -0.00500000
v 0.01962500 0.00100000 -0.00350000
v 0.02012500 0.00050000 -0.00250000
v 0.01962500 0.00100000 -0.00250000
v 0.01962500 0.00100000 -0.00150000
v 0.01962500 0.00150000 -0.00300000
v 0.01962500 0.00150000 -0.00150000
v 0.01962500 0.00150000 -0.00100000
v 0.01962500 0.00150000 0.00000000
v 0.01950000 0.00150000 0.00412500
v 0.02000000 0.00150000 0.00362500
v 0.02012500 0.00150000 0.00050000
v 0.01962500 0.00200000 0.00150000
v 0.02000000 0.00250000 0.00362500
v 0.01962500 0.00250000 0.00100000
v 0.02012500 0.00200000 0.00200000
v 0.01962500 0.00250000 0.00200000
v 0.01962500 0.00250000 0.00300000
v 0.02012500 0.00250000 0.00350000
v 0.01962500 0.00300000 -0.00700000
v 0.01962500 0.00300000 -0.00650000
v 0.01962500 0.00300000 0.00300000
v 0.01962500 0.00300000 0.00350000
v 0.01962500 0.00350000 -0.00350000
v 0.01962500 0.00350000 -0.00600000
v 0.01962500 0.00400000 -0.00050000
v 0.01962500 0.00400000 -0.00300000
v 0.01962500 0.00450000 0.00000000
v 0.02000000 0.00437500 0.00300000
v 0.01962500 0.00500000 -0.00750000
v 0.01962500 0.00550000 -0.00400000
v 0.01962500 0.00500000 0.00000000
v 0.02000000 0.00487500 0.00350000
v 0.02000000 0.00487500 0.00400000
v 0.01962500 0.00550000 -0.00700000
v 0.01962500 0.00600000 -0.00100000
v 0.01962500 0.00550000 -0.00050000
v 0.01962500 0.00600000 -0.00350000
v 0.01962500 0.00650000 -0.00050000
v 0.02000000 0.00662500 0.00000000
v 0.02000000 0.00700000 0.00412500
v 0.02000000 0.00712500 0.00250000
v 0.02012500 -0.00150000 -0.00250000
v 0.02012500 -0.00100000 -0.00300000
v 0.02012500 0.00000000 -0.00300000
v 0.02012500 -0.00000000 0.00350000
v 0.02012500 0.00000000 0.00400000
v 0.02012500 0.00050000 -0.00150000
v 0.02012500 0.00100000 -0.00100000
v 0.02012500 -0.00150000 0.00400000
v 0.02050000 0.00050000 0.00337500
v 0.02050000 0.00037500 0.00350000
v 0.02050000 0.00037500 0.00400000
v 0.02050000 0.00050000 0.00412500
v 0.02012500 0.00100000 0.00000000
v 0.02050000 0.00062500 0.00350000
v 0.02012500 0.00100000 0.00350000
v 0.02012500 0.00100000 0.00400000
v 0.02050000 0.00062500 0.00400000
v 0.02012500 0.00150000 0.00150000
v 0.02012500 0.00050000 0.00300000
v 0.02012500 0.00150000 0.00350000
v 0.02012500 0.00200000 0.00300000
v 0.02012500 0.00450000 0.00050000
v 0.02012500 0.00450000 0.00300000
v 0.02012500 0.00500000 0.00050000
v 0.02012500 0.00500000 0.00350000
v 0.02012500 0.00500000 0.00400000
v 0.02012500 0.00550000 -0.00000000
v 0.02012500 0.00650000 -0.00000000
v 0.02012500 0.00650000 0.00200000
v 0.02012500 0.00700000 0.00400000
v 0.02012500 0.00700000 0.00250000
v 0.02058333 0.00050000 0.00350000
v 0.02058333 0.00050000 0.00400000
f 1 18 2
f 1 3 4
f 2 3 1
f 24 18 1
f 4 5 1
f 5 24 1
f 6 4 3
f 6 7 4
f 7 5 4
f 7 6 8
f 8 9 10
f 6 9 8
f 5 19 24
f 7 11 5
f 11 19 5
f 8 12 7
f 12 11 7
f 10 13 8
f 13 12 8
f 14 10 9
f 14 15 10
f 15 13 10
f 15 16 17
f 14 16 15
f 11 20 19
f 12 21 11
f 21 20 11
f 13 22 12
f 22 21 12
f 15 23 13
f 23 22 13
f 17 31 15
f 31 23 15
f 43 18 24
f 19 25 24
f 20 26 19
f 26 25 19
f 21 27 20
f 27 26 20
f 22 28 21
f 28 27 21
f 23 29 22
f 29 28 22
f 31 30 23
f 30 29 23
f 32 17 16
f 32 33 17
f 33 31 17
f 34 43 24
f 25 35 24
f 35 34 24
f 26 36 25
f 36 35 25
f 27 36 26
f 28 37 27
f 37 36 27
f 29 38 28
f 38 37 28
f 30 39 29
f 39 38 29
f 31 40 30
f 40 39 30
f 33 41 31
f 41 40 31
f 42 43 34
f 35 44 34
f 44 42 34
f 36 44 35
f 37 45 36
f 45 44 36
f 38 46 37
f 46 45 37
f 39 47 38
f 47 46 38
f 40 48 39
f 48 47 39
f 41 49 40
f 49 48 40
f 50 49 33
f 49 41 33
f 32 50 33
f 42 51 43
f 44 51 42
f 52 51 44
f 45 52 44
f 52 53 57
f 52 45 53
f 45 46 53
f 47 54 46
f 54 53 46
f 48 55 47
f 55 54 47
f 50 55 49
f 55 48 49
f 56 57 53
f 54 58 53
f 58 56 53
f 55 59 54
f 59 58 54
f 60 55 50
f 59 55 60
f 61 57 56
f 62 57 61
f 58 63 56
f 63 61 56
f 64 63 59
f 63 58 59
f 60 64 59
f 62 69 65
f 62 61 69
f 61 66 69
f 63 67 61
f 67 66 61
f 68 63 64
f 67 63 68
f 72 65 69
f 66 70 69
f 68 70 67
f 70 66 67
f 71 72 69
f 73 71 70
f 71 69 70
f 68 73 70
f 71 73 72
f 76 126 74
f 77 126 76
f 75 129 74
f 129 76 74
f 2 143 79
f 18 143 2
f 77 76 3
f 77 3 79
f 79 3 2
f 3 76 80
f 80 76 129
f 78 81 129
f 81 80 129
f 82 78 130
f 82 81 78
f 3 80 6
f 9 6 80
f 81 9 80
f 9 81 83
f 82 85 81
f 85 83 81
f 86 85 82
f 84 86 138
f 9 83 14
f 16 14 83
f 85 16 83
f 91 89 90
f 18 43 143
f 143 43 239
f 16 85 32
f 32 85 94
f 94 85 86
f 84 94 86
f 87 94 84
f 88 109 87
f 89 109 88
f 91 109 89
f 95 92 93
f 109 94 87
f 92 95 91
f 95 109 91
f 96 98 95
f 99 96 97
f 98 96 99
f 102 100 239
f 102 239 43
f 50 32 94
f 50 94 104
f 98 105 95
f 106 98 101
f 106 105 98
f 99 101 98
f 160 100 102
f 43 51 103
f 43 103 102
f 51 52 103
f 103 52 107
f 52 57 107
f 105 109 95
f 111 160 102
f 103 111 102
f 112 111 103
f 107 112 103
f 104 108 60
f 50 104 60
f 94 108 104
f 109 108 94
f 105 117 109
f 110 105 106
f 117 105 110
f 112 113 114
f 112 107 113
f 57 62 113
f 107 57 113
f 64 60 108
f 64 108 115
f 109 116 108
f 117 162 109
f 110 163 117
f 65 114 113
f 65 118 114
f 62 65 113
f 115 120 68
f 64 115 68
f 108 120 115
f 116 120 108
f 65 72 118
f 118 72 171
f 73 68 120
f 73 120 121
f 121 72 73
f 121 209 72
f 209 171 72
f 120 122 121
f 123 122 120
f 124 123 120
f 116 124 120
f 124 116 119
f 121 180 209
f 220 180 121
f 122 220 121
f 220 122 123
f 179 124 119
f 123 259 220
f 125 259 123
f 124 125 123
f 179 125 124
f 74 126 127
f 75 74 127
f 75 127 128
f 184 75 128
f 77 132 126
f 184 129 75
f 130 78 129
f 131 133 130
f 134 133 131
f 79 190 132
f 79 143 190
f 77 79 132
f 130 133 82
f 134 82 133
f 86 82 134
f 135 86 134
f 138 86 135
f 138 135 136
f 139 136 137
f 139 138 136
f 87 84 138
f 139 87 138
f 140 87 139
f 87 140 144
f 144 140 141
f 90 144 141
f 145 141 142
f 145 90 141
f 87 144 88
f 89 88 144
f 90 89 144
f 148 90 145
f 146 149 145
f 149 148 145
f 150 146 147
f 150 149 146
f 90 148 91
f 92 91 148
f 149 92 148
f 93 92 149
f 150 152 149
f 152 93 149
f 153 150 151
f 152 150 153
f 96 95 93
f 152 96 93
f 152 97 96
f 152 153 97
f 153 154 97
f 97 154 99
f 154 156 99
f 155 239 100
f 157 155 100
f 101 158 159
f 106 101 159
f 156 101 99
f 158 101 156
f 100 160 157
f 106 159 110
f 111 112 161
f 166 111 161
f 112 114 161
f 109 162 116
f 162 117 163
f 163 110 164
f 110 159 164
f 111 165 160
f 166 161 167
f 114 118 167
f 161 114 167
f 162 168 119
f 116 162 119
f 169 168 162
f 163 169 162
f 175 163 164
f 170 167 118
f 170 118 171
f 168 172 173
f 168 173 119
f 169 172 168
f 169 163 174
f 175 174 163
f 176 175 164
f 173 177 119
f 217 174 175
f 178 217 175
f 176 178 175
f 177 179 119
f 127 181 182
f 127 126 181
f 128 127 182
f 183 128 182
f 128 183 184
f 185 186 130
f 126 132 181
f 185 129 184
f 130 129 185
f 131 130 186
f 137 188 189
f 187 188 137
f 228 132 190
f 187 135 134
f 137 135 187
f 136 135 137
f 191 137 189
f 192 189 188
f 192 191 189
f 137 191 139
f 140 139 191
f 192 140 191
f 141 140 192
f 142 141 192
f 194 142 193
f 273 195 193
f 195 194 193
f 273 196 147
f 190 143 233
f 142 194 145
f 195 145 194
f 146 145 195
f 273 146 195
f 147 146 273
f 198 147 196
f 199 196 197
f 198 196 199
f 233 143 239
f 147 198 150
f 198 151 150
f 198 199 151
f 199 200 151
f 151 200 153
f 200 201 153
f 153 201 154
f 201 202 154
f 155 366 239
f 204 156 202
f 156 154 202
f 157 203 366
f 155 157 366
f 158 204 245
f 158 245 159
f 156 204 158
f 203 157 160
f 245 205 159
f 159 205 164
f 165 247 160
f 165 111 206
f 111 166 206
f 166 167 206
f 167 170 206
f 170 251 206
f 251 170 171
f 207 251 171
f 172 169 208
f 169 174 208
f 164 248 176
f 171 209 207
f 172 210 177
f 173 172 177
f 208 210 172
f 174 211 208
f 208 211 210
f 211 174 217
f 212 217 213
f 213 217 178
f 248 178 176
f 213 178 248
f 210 214 215
f 210 215 177
f 177 215 179
f 216 214 210
f 211 216 210
f 209 218 252
f 180 218 209
f 215 257 179
f 125 296 259
f 125 260 296
f 257 125 179
f 260 125 257
f 182 221 222
f 181 221 182
f 183 182 222
f 183 222 223
f 221 181 132
f 183 223 184
f 185 184 223
f 224 185 223
f 224 225 185
f 185 225 186
f 131 186 226
f 186 225 226
f 131 226 134
f 187 134 226
f 227 187 226
f 187 227 229
f 187 229 188
f 188 229 230
f 190 233 228
f 188 230 192
f 231 192 230
f 142 192 231
f 232 142 231
f 193 142 232
f 193 232 273
f 196 273 234
f 235 196 234
f 235 197 196
f 235 236 197
f 236 237 197
f 275 233 239
f 197 237 199
f 237 238 199
f 199 238 200
f 238 240 200
f 200 240 201
f 240 241 201
f 201 241 202
f 241 242 202
f 243 366 203
f 204 244 245
f 242 204 202
f 244 204 242
f 203 160 319
f 319 160 247
f 205 246 164
f 165 206 250
f 248 246 249
f 248 164 246
f 251 250 206
f 213 248 249
f 213 249 212
f 209 252 207
f 214 253 254
f 215 214 254
f 255 253 216
f 216 253 214
f 211 217 258
f 217 256 258
f 217 212 256
f 180 219 218
f 180 220 219
f 215 254 257
f 258 255 216
f 211 258 216
f 299 262 223
f 222 261 299
f 222 221 261
f 223 222 299
f 223 262 263
f 223 263 224
f 224 263 301
f 224 301 264
f 221 132 269
f 224 264 225
f 265 225 264
f 226 225 265
f 265 266 226
f 227 226 266
f 227 266 335
f 227 335 267
f 228 269 132
f 227 267 229
f 230 229 267
f 268 230 267
f 231 230 268
f 268 271 231
f 232 231 272
f 231 271 272
f 232 272 273
f 233 270 269
f 233 275 270
f 228 233 269
f 274 234 273
f 274 276 234
f 234 276 235
f 276 236 235
f 277 236 276
f 236 277 237
f 277 278 237
f 275 239 337
f 337 239 366
f 237 278 238
f 278 279 238
f 238 279 240
f 279 280 240
f 240 280 241
f 280 281 241
f 241 281 242
f 281 282 242
f 203 319 243
f 245 244 283
f 282 244 242
f 245 283 205
f 283 318 205
f 318 284 205
f 451 247 376
f 205 321 246
f 285 376 247
f 321 249 246
f 286 249 321
f 247 287 285
f 247 165 287
f 165 288 287
f 250 289 165
f 165 289 288
f 250 290 289
f 250 291 290
f 250 251 292
f 251 207 292
f 249 286 212
f 286 293 212
f 292 291 250
f 292 207 252
f 253 294 254
f 253 255 294
f 212 293 256
f 219 388 218
f 294 328 295
f 294 295 257
f 294 257 254
f 255 328 294
f 258 328 255
f 258 329 328
f 293 258 256
f 329 258 293
f 220 297 219
f 259 297 220
f 259 298 297
f 259 296 298
f 296 260 295
f 257 295 260
f 299 261 334
f 262 299 362
f 362 300 301
f 262 362 263
f 301 263 362
f 265 264 400
f 264 301 400
f 265 400 302
f 221 269 261
f 261 269 304
f 265 302 266
f 303 266 302
f 335 266 303
f 268 267 305
f 267 335 305
f 305 306 272
f 304 269 270
f 275 304 270
f 268 305 271
f 272 271 305
f 272 306 307
f 272 307 273
f 274 273 308
f 273 307 308
f 274 308 367
f 274 367 309
f 274 309 276
f 309 277 276
f 309 310 277
f 310 311 277
f 277 311 278
f 311 312 278
f 278 312 279
f 312 313 279
f 402 366 342
f 279 313 280
f 313 314 280
f 366 243 342
f 280 314 281
f 314 315 281
f 317 282 315
f 282 281 315
f 319 316 342
f 243 319 342
f 244 317 318
f 244 318 283
f 282 317 244
f 321 205 350
f 320 376 285
f 322 320 285
f 286 321 350
f 285 323 322
f 287 323 285
f 287 288 323
f 324 288 289
f 324 289 290
f 286 350 293
f 325 324 290
f 291 325 290
f 292 326 291
f 326 292 252
f 252 218 326
f 296 295 327
f 328 331 327
f 328 327 295
f 331 328 332
f 332 328 329
f 329 293 330
f 298 296 327
f 330 332 329
f 261 333 334
f 299 334 361
f 299 361 362
f 333 261 336
f 304 336 261
f 338 364 308
f 275 337 336
f 304 275 336
f 306 338 307
f 308 307 338
f 308 364 367
f 367 310 309
f 339 310 367
f 310 339 311
f 339 340 311
f 311 340 312
f 340 341 312
f 312 341 313
f 341 343 313
f 313 343 314
f 343 344 314
f 505 342 345
f 314 344 315
f 344 346 315
f 345 342 316
f 347 345 316
f 317 348 377
f 318 317 377
f 346 317 315
f 348 317 346
f 316 319 347
f 347 319 247
f 373 247 451
f 320 419 376
f 284 350 205
f 380 350 284
f 322 349 419
f 322 426 349
f 320 322 419
f 323 426 322
f 323 288 352
f 288 324 352
f 323 351 426
f 352 351 323
f 324 325 352
f 219 384 388
f 353 384 219
f 293 432 330
f 327 354 298
f 354 297 298
f 331 354 327
f 332 391 331
f 331 391 355
f 332 356 391
f 432 332 330
f 356 332 432
f 357 358 359
f 359 360 357
f 334 358 357
f 334 333 358
f 357 360 361
f 357 361 334
f 301 440 400
f 301 300 440
f 300 362 440
f 303 363 335
f 399 336 337
f 335 363 401
f 335 401 305
f 306 305 401
f 306 401 338
f 364 365 367
f 368 339 367
f 339 368 340
f 368 369 340
f 340 369 341
f 369 370 341
f 341 370 343
f 370 371 343
f 343 371 344
f 371 372 344
f 374 346 372
f 346 344 372
f 347 373 505
f 345 347 505
f 348 374 375
f 348 375 377
f 346 374 348
f 347 247 373
f 318 377 284
f 378 419 349
f 379 378 349
f 349 426 379
f 380 432 350
f 291 383 325
f 291 326 383
f 353 219 386
f 353 386 382
f 353 382 381
f 350 432 293
f 218 387 326
f 218 388 387
f 385 388 384
f 219 297 386
f 297 433 386
f 433 297 389
f 354 501 297
f 297 501 389
f 355 390 331
f 331 390 354
f 391 393 355
f 356 432 392
f 356 393 391
f 394 393 356
f 392 394 356
f 359 395 396
f 358 395 359
f 396 360 359
f 397 360 396
f 358 333 395
f 395 333 336
f 360 397 398
f 361 360 398
f 362 361 398
f 303 302 363
f 302 443 363
f 337 402 399
f 364 338 365
f 337 366 402
f 365 368 367
f 365 403 368
f 403 404 368
f 368 404 369
f 404 405 369
f 369 405 370
f 405 406 370
f 370 406 371
f 406 407 371
f 566 505 409
f 371 407 372
f 407 408 372
f 409 505 373
f 374 410 411
f 375 374 411
f 408 374 372
f 410 374 408
f 422 412 413
f 422 414 415
f 412 422 415
f 415 414 416
f 416 414 417
f 416 417 418
f 375 411 377
f 451 376 419
f 414 422 423
f 427 417 423
f 423 417 414
f 418 417 427
f 420 422 413
f 377 424 284
f 378 514 419
f 379 421 514
f 378 379 514
f 423 422 382
f 382 427 423
f 380 424 425
f 284 424 380
f 421 379 426
f 381 422 420
f 382 422 381
f 381 420 353
f 431 427 382
f 426 492 713
f 351 492 426
f 325 383 352
f 462 383 326
f 326 387 462
f 385 384 430
f 428 353 420
f 428 430 353
f 430 384 353
f 386 431 382
f 387 429 462
f 429 388 385
f 429 387 388
f 390 435 354
f 390 355 393
f 436 390 393
f 432 434 392
f 394 437 393
f 393 437 436
f 434 394 392
f 437 394 434
f 396 395 438
f 396 438 397
f 438 441 439
f 438 395 441
f 395 336 441
f 397 438 439
f 397 439 398
f 362 398 440
f 399 441 336
f 302 400 443
f 444 363 443
f 363 444 401
f 402 442 441
f 402 472 442
f 399 402 441
f 401 444 528
f 401 528 338
f 506 403 365
f 445 403 506
f 472 402 342
f 403 445 404
f 445 446 404
f 404 446 405
f 446 447 405
f 405 447 406
f 447 448 406
f 406 448 407
f 448 449 407
f 450 408 449
f 408 407 449
f 373 451 409
f 410 450 480
f 410 480 411
f 408 450 410
f 480 483 411
f 481 412 452
f 452 412 415
f 452 415 416
f 453 452 416
f 412 454 455
f 412 455 413
f 481 454 412
f 456 453 416
f 416 418 456
f 411 483 377
f 418 427 456
f 413 455 420
f 377 483 424
f 483 484 424
f 457 514 421
f 455 459 420
f 484 425 424
f 458 425 484
f 456 427 464
f 425 458 380
f 421 426 485
f 485 426 713
f 428 459 460
f 428 460 461
f 420 459 428
f 427 431 464
f 383 463 352
f 352 463 351
f 383 462 463
f 429 385 494
f 430 496 385
f 385 496 494
f 461 430 428
f 496 430 461
f 464 431 386
f 465 464 386
f 462 497 463
f 462 429 497
f 497 429 494
f 386 433 465
f 432 380 434
f 380 466 434
f 354 435 501
f 467 435 390
f 390 436 467
f 437 466 468
f 437 434 466
f 436 468 467
f 468 436 437
f 441 469 439
f 439 469 398
f 471 440 470
f 440 398 470
f 469 441 442
f 472 469 442
f 440 471 400
f 528 443 504
f 444 443 528
f 338 528 506
f 365 338 506
f 473 445 506
f 445 473 446
f 473 474 446
f 446 474 447
f 474 475 447
f 447 475 448
f 475 476 448
f 566 409 507
f 448 476 449
f 476 477 449
f 450 479 480
f 477 450 449
f 479 450 477
f 451 478 507
f 451 419 478
f 409 451 507
f 452 453 481
f 453 456 481
f 484 483 516
f 421 485 457
f 454 486 459
f 455 454 459
f 481 487 454
f 487 486 454
f 481 456 487
f 458 484 516
f 456 464 487
f 460 459 486
f 460 486 488
f 488 486 489
f 487 489 486
f 458 537 380
f 488 490 461
f 460 488 461
f 490 488 489
f 537 491 380
f 463 493 351
f 495 494 496
f 490 496 461
f 464 498 487
f 464 465 498
f 495 497 494
f 498 465 433
f 380 491 466
f 433 499 498
f 389 499 433
f 501 500 389
f 501 435 467
f 468 466 502
f 502 466 491
f 467 524 501
f 468 503 467
f 467 503 524
f 503 468 502
f 566 610 469
f 398 469 470
f 469 472 566
f 472 342 566
f 566 342 505
f 570 473 506
f 570 529 473
f 529 474 473
f 474 529 475
f 529 508 475
f 475 508 476
f 508 509 476
f 685 507 510
f 476 509 477
f 509 511 477
f 510 507 478
f 512 510 478
f 480 479 513
f 511 479 477
f 478 419 512
f 512 419 514
f 480 513 483
f 513 534 483
f 532 514 653
f 483 534 482
f 514 457 653
f 482 516 483
f 537 516 482
f 485 515 653
f 485 713 515
f 457 485 653
f 516 537 458
f 489 517 490
f 489 487 517
f 537 520 491
f 493 492 351
f 521 493 463
f 517 496 490
f 517 495 496
f 487 519 517
f 487 498 519
f 497 521 463
f 518 497 495
f 518 521 497
f 498 522 519
f 491 520 523
f 498 499 522
f 499 553 522
f 389 500 499
f 501 524 525
f 501 525 500
f 502 491 523
f 524 503 525
f 469 610 470
f 636 470 635
f 471 470 636
f 471 636 400
f 443 400 526
f 443 526 527
f 504 443 527
f 504 527 528
f 566 507 633
f 633 507 685
f 529 530 508
f 508 530 509
f 530 531 509
f 533 511 531
f 511 509 531
f 512 532 685
f 510 512 685
f 479 533 534
f 479 534 513
f 511 533 479
f 512 514 532
f 700 653 535
f 535 653 515
f 536 535 515
f 515 713 536
f 536 713 622
f 538 582 551
f 539 582 538
f 492 551 713
f 582 713 551
f 551 492 540
f 492 493 540
f 493 521 540
f 495 541 518
f 495 517 542
f 541 495 542
f 517 519 542
f 538 543 544
f 521 545 540
f 545 521 546
f 521 518 546
f 518 541 546
f 546 541 547
f 547 542 548
f 547 541 542
f 519 548 542
f 519 549 548
f 549 519 522
f 583 523 520
f 550 523 583
f 552 551 540
f 545 552 540
f 546 557 545
f 547 557 546
f 557 547 587
f 522 553 549
f 499 500 553
f 554 500 525
f 523 550 502
f 550 555 502
f 625 544 543
f 551 556 538
f 552 561 551
f 557 552 545
f 587 558 557
f 503 554 525
f 555 503 502
f 554 503 555
f 559 625 543
f 538 559 543
f 556 559 538
f 551 561 556
f 557 560 552
f 559 677 625
f 556 677 559
f 627 677 556
f 627 556 561
f 561 563 627
f 629 563 561
f 552 629 561
f 629 552 564
f 552 560 564
f 564 562 565
f 564 560 562
f 564 597 629
f 400 636 526
f 527 567 528
f 528 567 568
f 528 569 506
f 571 529 570
f 529 571 530
f 571 572 530
f 530 572 531
f 572 573 531
f 574 685 532
f 533 575 576
f 534 533 576
f 573 533 531
f 575 533 573
f 621 532 653
f 534 577 482
f 536 622 700
f 535 536 700
f 537 577 578
f 482 577 537
f 623 579 537
f 579 580 537
f 537 580 520
f 581 539 538
f 581 674 539
f 539 674 582
f 583 580 584
f 583 520 580
f 538 544 581
f 548 585 547
f 548 549 586
f 585 548 586
f 550 583 584
f 547 585 587
f 586 587 585
f 549 553 589
f 549 589 586
f 553 500 588
f 589 553 588
f 500 554 588
f 554 592 588
f 554 675 592
f 554 555 675
f 557 558 560
f 587 591 558
f 586 591 587
f 589 591 586
f 588 591 589
f 626 592 675
f 626 593 592
f 593 717 590
f 626 717 593
f 717 753 590
f 558 565 562
f 560 558 562
f 591 565 558
f 588 592 591
f 565 594 564
f 591 594 565
f 593 596 592
f 590 596 593
f 603 590 753
f 596 590 603
f 629 597 681
f 594 597 564
f 594 598 597
f 591 598 594
f 599 598 591
f 599 591 600
f 595 600 591
f 592 595 591
f 596 601 592
f 602 596 603
f 602 601 596
f 600 604 599
f 595 604 600
f 756 604 595
f 756 605 606
f 756 595 605
f 595 592 605
f 601 607 592
f 607 605 592
f 632 601 602
f 607 601 632
f 605 608 606
f 607 608 605
f 609 608 607
f 632 609 607
f 566 633 610
f 470 610 635
f 613 526 611
f 526 612 527
f 613 612 526
f 527 612 567
f 613 614 616
f 613 616 612
f 567 612 616
f 567 616 640
f 567 640 568
f 568 640 615
f 528 568 615
f 528 615 569
f 506 569 570
f 570 569 617
f 618 571 570
f 571 618 572
f 618 619 572
f 620 573 619
f 573 572 619
f 532 621 574
f 575 620 652
f 575 652 576
f 573 620 575
f 652 665 576
f 576 665 534
f 784 700 668
f 534 669 577
f 668 700 622
f 669 578 577
f 623 578 669
f 578 623 537
f 673 713 582
f 624 584 580
f 581 544 625
f 584 624 550
f 624 675 550
f 550 675 555
f 563 629 628
f 753 679 603
f 598 681 597
f 599 630 598
f 598 630 722
f 683 630 599
f 602 603 631
f 631 603 679
f 604 683 599
f 602 631 632
f 635 634 636
f 635 610 634
f 526 636 637
f 611 637 686
f 611 526 637
f 638 611 686
f 639 638 686
f 611 614 613
f 611 638 614
f 615 641 569
f 638 639 642
f 614 638 642
f 643 614 642
f 616 643 648
f 616 614 643
f 616 648 644
f 616 644 645
f 616 645 640
f 615 640 645
f 646 615 645
f 641 615 646
f 685 574 687
f 654 644 648
f 618 697 619
f 648 650 657
f 657 654 648
f 620 651 652
f 697 620 619
f 651 620 697
f 621 649 687
f 621 653 649
f 574 621 687
f 656 650 647
f 657 650 656
f 655 656 647
f 655 658 656
f 656 658 660
f 660 661 656
f 662 658 659
f 663 662 659
f 660 658 662
f 664 661 660
f 662 663 666
f 660 662 666
f 667 660 666
f 664 660 667
f 669 665 670
f 669 534 665
f 622 671 668
f 623 669 670
f 622 713 671
f 670 712 623
f 712 579 623
f 750 713 673
f 579 672 580
f 582 674 714
f 714 673 582
f 672 624 580
f 624 751 675
f 675 676 716
f 626 675 716
f 626 716 717
f 625 677 793
f 627 754 677
f 754 627 563
f 628 797 563
f 681 628 629
f 679 718 680
f 679 753 718
f 598 722 681
f 631 679 680
f 631 680 682
f 777 756 606
f 631 682 632
f 606 608 777
f 609 723 608
f 682 609 632
f 723 609 682
f 610 633 634
f 636 634 684
f 686 637 688
f 688 639 686
f 569 641 728
f 692 569 728
f 639 688 689
f 642 639 689
f 690 643 689
f 643 642 689
f 643 690 648
f 691 645 644
f 691 646 645
f 691 641 646
f 617 569 692
f 570 617 692
f 570 692 693
f 693 618 570
f 694 618 693
f 734 687 695
f 650 690 647
f 648 690 650
f 644 654 696
f 691 644 696
f 618 694 697
f 695 687 649
f 698 695 649
f 690 702 647
f 696 654 701
f 652 651 699
f 649 653 698
f 698 653 700
f 652 699 665
f 699 738 665
f 655 647 702
f 657 656 704
f 657 704 654
f 654 704 701
f 735 700 784
f 658 702 703
f 658 703 659
f 659 703 705
f 655 702 658
f 656 661 704
f 661 706 704
f 659 705 663
f 661 664 707
f 706 661 707
f 784 668 809
f 663 705 708
f 666 663 708
f 667 666 708
f 667 709 664
f 664 709 707
f 667 708 711
f 709 667 711
f 749 670 665
f 712 670 749
f 671 710 809
f 671 713 710
f 668 671 809
f 714 849 789
f 714 789 673
f 624 579 715
f 624 672 579
f 674 581 792
f 674 792 849
f 849 714 674
f 624 715 751
f 581 625 793
f 677 796 793
f 563 719 754
f 563 678 719
f 720 680 718
f 681 722 755
f 630 721 722
f 680 720 682
f 630 683 721
f 683 604 721
f 636 684 637
f 685 687 633
f 633 687 734
f 637 724 725
f 688 637 725
f 641 726 727
f 728 727 729
f 728 641 727
f 688 725 730
f 689 688 730
f 730 690 689
f 726 641 691
f 762 726 691
f 692 728 729
f 693 692 731
f 692 729 731
f 732 731 733
f 732 693 731
f 693 732 694
f 762 691 696
f 736 762 696
f 737 732 733
f 738 737 733
f 694 737 697
f 732 737 694
f 698 735 734
f 695 698 734
f 690 730 702
f 730 739 702
f 740 736 701
f 701 736 696
f 651 737 738
f 651 738 699
f 697 737 651
f 698 700 735
f 765 741 702
f 765 702 739
f 740 741 765
f 703 702 741
f 703 741 742
f 701 704 740
f 703 742 705
f 740 743 741
f 743 742 741
f 704 706 743
f 740 704 743
f 742 745 705
f 746 745 742
f 707 746 743
f 743 746 742
f 706 707 743
f 738 744 665
f 824 809 747
f 705 745 708
f 708 745 748
f 748 745 746
f 707 709 748
f 746 707 748
f 749 744 767
f 749 665 744
f 747 809 710
f 750 747 710
f 708 748 711
f 709 711 748
f 712 749 767
f 710 713 750
f 750 673 766
f 766 673 789
f 712 770 579
f 789 849 769
f 770 715 579
f 751 715 770
f 791 675 751
f 717 716 752
f 752 753 717
f 677 754 796
f 753 775 718
f 628 681 797
f 775 720 718
f 681 755 797
f 604 874 721
f 604 756 874
f 634 633 684
f 684 633 818
f 633 734 818
f 725 724 757
f 725 757 758
f 818 734 764
f 725 758 730
f 730 759 760
f 730 758 759
f 726 762 763
f 727 726 763
f 729 727 763
f 783 733 731
f 764 734 735
f 760 765 730
f 761 765 760
f 762 736 761
f 733 783 738
f 783 905 738
f 730 765 739
f 740 765 761
f 736 740 761
f 788 767 744
f 750 766 824
f 747 750 824
f 712 768 770
f 770 768 771
f 849 772 769
f 751 770 771
f 581 793 848
f 773 676 675
f 773 794 676
f 676 794 752
f 676 752 716
f 774 753 752
f 775 753 774
f 755 833 797
f 776 722 721
f 608 801 777
f 608 723 801
f 637 684 778
f 724 637 778
f 724 778 779
f 757 724 779
f 758 757 780
f 757 779 780
f 780 759 758
f 759 780 781
f 760 759 782
f 759 781 782
f 782 762 761
f 782 804 762
f 762 804 763
f 729 763 807
f 731 729 808
f 808 783 731
f 735 784 764
f 760 782 761
f 905 785 738
f 785 786 738
f 738 786 744
f 922 824 787
f 787 824 766
f 786 788 744
f 767 788 712
f 712 788 768
f 843 789 844
f 789 769 844
f 791 771 768
f 772 790 844
f 769 772 844
f 771 791 751
f 791 773 675
f 795 752 794
f 752 795 774
f 793 796 815
f 754 816 796
f 754 719 816
f 775 795 720
f 774 795 775
f 719 678 816
f 722 798 755
f 798 722 776
f 874 756 777
f 799 874 777
f 720 800 682
f 777 801 799
f 800 723 682
f 821 778 819
f 818 764 805
f 779 778 821
f 780 779 821
f 780 821 802
f 802 803 804
f 780 802 781
f 782 781 802
f 804 782 802
f 804 803 807
f 804 807 763
f 729 807 808
f 784 806 805
f 784 809 806
f 764 784 805
f 810 783 808
f 810 905 783
f 766 812 787
f 788 785 811
f 786 785 788
f 766 789 812
f 812 789 843
f 788 813 768
f 814 844 790
f 813 791 768
f 792 848 972
f 581 848 792
f 792 972 849
f 848 793 815
f 871 794 773
f 794 871 795
f 795 871 720
f 871 817 720
f 563 797 678
f 798 854 755
f 817 800 720
f 721 874 834
f 818 805 820
f 803 802 877
f 903 803 877
f 820 805 806
f 822 820 806
f 807 803 903
f 810 808 823
f 808 807 823
f 806 809 822
f 822 809 824
f 925 905 810
f 838 824 922
f 905 840 785
f 840 842 785
f 842 811 785
f 826 811 842
f 812 825 922
f 787 812 922
f 811 826 788
f 788 827 813
f 790 829 814
f 791 827 828
f 813 827 791
f 790 772 829
f 829 772 948
f 948 772 849
f 831 867 815
f 831 832 830
f 815 832 831
f 815 796 832
f 816 894 796
f 755 854 833
f 721 834 776
f 874 799 835
f 799 723 835
f 799 801 723
f 818 837 684
f 684 855 778
f 819 836 821
f 820 837 818
f 822 838 837
f 820 822 837
f 823 807 879
f 807 903 879
f 822 824 838
f 810 823 839
f 810 839 925
f 905 881 840
f 859 922 841
f 842 840 861
f 841 922 825
f 843 841 825
f 826 842 861
f 825 812 843
f 861 845 826
f 826 845 788
f 845 862 788
f 788 862 827
f 844 814 885
f 862 864 827
f 864 828 827
f 847 828 864
f 829 846 885
f 829 948 846
f 814 829 885
f 828 847 791
f 847 850 791
f 791 850 773
f 871 773 850
f 831 851 852
f 831 830 851
f 867 831 852
f 894 816 678
f 678 895 853
f 797 895 678
f 798 776 854
f 776 834 854
f 835 898 874
f 835 817 898
f 835 800 817
f 800 835 723
f 837 856 684
f 684 856 855
f 819 778 855
f 819 855 836
f 856 837 838
f 823 879 857
f 858 823 857
f 839 823 858
f 839 858 925
f 881 861 840
f 884 861 881
f 843 860 859
f 843 883 860
f 841 843 859
f 883 843 885
f 843 844 885
f 910 885 863
f 864 862 865
f 863 885 846
f 866 863 846
f 847 864 865
f 846 948 866
f 848 815 867
f 852 869 870
f 851 869 852
f 868 867 852
f 870 868 852
f 851 830 869
f 869 830 872
f 830 832 872
f 678 873 894
f 678 853 873
f 895 797 833
f 834 918 854
f 874 918 834
f 855 856 901
f 876 855 901
f 838 875 856
f 836 855 876
f 836 876 821
f 802 821 876
f 802 876 877
f 838 922 875
f 879 903 878
f 879 878 880
f 857 879 880
f 904 857 880
f 858 857 904
f 858 904 925
f 922 859 1067
f 1067 859 906
f 906 859 882
f 882 859 860
f 883 882 860
f 861 884 845
f 845 865 862
f 912 865 845
f 866 886 910
f 863 866 910
f 866 948 886
f 865 887 847
f 849 972 888
f 888 948 849
f 847 887 850
f 848 867 889
f 891 889 868
f 868 889 867
f 870 890 891
f 870 869 890
f 869 892 890
f 868 870 891
f 871 850 1059
f 869 872 892
f 892 872 893
f 872 832 893
f 895 833 938
f 833 896 938
f 854 939 833
f 874 897 918
f 856 899 900
f 856 900 920
f 901 856 920
f 875 899 856
f 875 922 899
f 877 876 902
f 877 902 903
f 878 903 923
f 924 878 923
f 880 878 924
f 905 908 881
f 883 907 906
f 882 883 906
f 884 908 909
f 881 908 884
f 883 885 907
f 907 885 910
f 990 910 967
f 967 910 911
f 911 910 886
f 886 948 930
f 865 912 887
f 848 889 913
f 891 914 934
f 890 914 891
f 913 889 891
f 934 913 891
f 850 887 915
f 890 892 914
f 914 892 916
f 850 915 917
f 850 917 1059
f 892 893 916
f 796 937 832
f 894 873 955
f 873 853 955
f 895 938 853
f 833 939 896
f 898 897 874
f 897 898 817
f 900 919 940
f 899 919 900
f 900 940 920
f 899 922 919
f 901 920 921
f 901 921 876
f 904 880 924
f 904 924 925
f 944 905 925
f 905 944 908
f 944 946 908
f 926 906 907
f 946 909 908
f 927 909 946
f 909 927 884
f 907 910 966
f 966 910 990
f 884 928 845
f 886 930 911
f 912 928 929
f 845 928 912
f 912 929 887
f 929 931 887
f 931 932 887
f 914 933 934
f 932 915 887
f 977 915 932
f 914 916 933
f 933 916 935
f 915 977 917
f 916 893 935
f 935 893 936
f 893 937 936
f 832 937 893
f 796 979 937
f 796 894 979
f 853 956 955
f 938 956 853
f 939 854 918
f 871 958 817
f 940 921 920
f 940 1067 959
f 940 919 1067
f 919 922 1067
f 921 940 959
f 876 921 902
f 903 902 941
f 923 903 942
f 943 923 942
f 923 943 924
f 924 943 984
f 924 984 925
f 946 945 965
f 946 944 945
f 907 966 926
f 927 946 965
f 965 1016 927
f 927 1016 884
f 1016 928 884
f 971 929 928
f 930 947 967
f 930 948 947
f 911 930 967
f 848 949 972
f 1081 948 888
f 951 949 913
f 913 949 848
f 934 950 951
f 934 933 950
f 933 953 950
f 913 934 951
f 977 931 952
f 932 931 977
f 933 935 953
f 953 935 954
f 1060 871 1059
f 935 936 954
f 894 955 979
f 871 1060 958
f 938 1005 956
f 896 957 938
f 897 1007 918
f 958 897 817
f 921 959 960
f 902 921 960
f 902 960 1008
f 961 902 1008
f 941 902 961
f 903 941 961
f 903 961 942
f 984 942 1010
f 1067 906 982
f 943 942 984
f 906 926 982
f 962 944 925
f 962 963 944
f 963 945 944
f 963 965 945
f 989 965 963
f 966 964 982
f 926 966 982
f 1016 968 928
f 1015 967 969
f 969 967 947
f 970 969 947
f 968 971 928
f 947 948 970
f 970 948 1017
f 1017 948 1081
f 971 995 929
f 929 995 931
f 995 999 931
f 951 973 974
f 950 973 951
f 972 949 951
f 974 972 951
f 999 952 931
f 975 952 999
f 950 953 973
f 973 953 976
f 952 975 977
f 953 954 976
f 976 954 978
f 917 977 1099
f 917 1099 1059
f 954 936 978
f 956 979 955
f 1005 938 957
f 1060 981 958
f 939 980 896
f 939 918 980
f 918 1066 980
f 1007 897 981
f 958 981 897
f 959 1067 960
f 942 961 1010
f 986 925 985
f 925 984 985
f 1012 982 987
f 925 986 962
f 962 986 988
f 988 963 962
f 989 963 988
f 987 982 964
f 990 987 964
f 965 989 1016
f 964 966 990
f 990 967 1015
f 1016 991 968
f 970 992 1015
f 970 1017 992
f 969 970 1015
f 971 991 993
f 968 991 971
f 971 994 995
f 997 998 972
f 972 998 888
f 999 995 1000
f 974 996 997
f 974 973 996
f 973 1001 996
f 972 974 997
f 975 999 1000
f 973 976 1001
f 1001 976 1002
f 976 978 1002
f 1002 978 1003
f 978 936 1003
f 937 1004 936
f 979 1004 937
f 980 1006 896
f 896 1006 957
f 981 1065 1007
f 1067 982 1012
f 961 1008 1009
f 961 1009 983
f 984 1010 1011
f 1014 985 1048
f 986 985 1014
f 1075 988 1014
f 988 986 1014
f 988 1075 989
f 990 1013 1012
f 987 990 1012
f 989 1075 1016
f 1013 990 1015
f 1113 1015 1076
f 1016 1030 991
f 1076 1015 1018
f 1030 1032 991
f 992 1017 1018
f 1018 1015 992
f 1032 993 991
f 1019 993 1032
f 993 1019 971
f 971 1019 994
f 997 1020 1021
f 996 1020 997
f 997 1021 998
f 994 1000 995
f 1022 1000 994
f 996 1001 1020
f 1020 1001 1023
f 1000 1022 975
f 1022 1056 975
f 1001 1002 1023
f 1023 1002 1024
f 975 1056 977
f 1002 1003 1024
f 977 1056 1099
f 1005 1026 956
f 956 1026 1103
f 1060 1025 981
f 1005 1064 1026
f 1005 957 1064
f 1025 1065 981
f 1008 960 1027
f 1008 1027 1009
f 1010 983 1011
f 1010 961 983
f 1067 1012 1028
f 985 984 1048
f 1028 1012 1013
f 1075 1029 1016
f 1013 1015 1074
f 1074 1015 1113
f 1016 1029 1030
f 1032 1030 1033
f 1018 1031 1076
f 1018 1017 1031
f 1017 1081 1031
f 1019 1032 1033
f 1021 1034 1082
f 1021 1020 1034
f 1020 1035 1034
f 998 1021 1082
f 1051 998 1082
f 1051 888 998
f 1020 1023 1035
f 1035 1023 1036
f 1023 1024 1036
f 1036 1024 1037
f 1024 1003 1037
f 1037 1003 1038
f 1003 936 1038
f 1060 1041 1025
f 979 1039 1004
f 1040 979 956
f 1025 1041 1042
f 1006 1064 957
f 1065 1025 1042
f 918 1007 1066
f 960 1044 1027
f 983 1009 1045
f 983 1045 1046
f 984 1011 1047
f 984 1047 1048
f 1013 1074 1028
f 1050 1076 1031
f 1029 1033 1030
f 1080 1033 1029
f 1033 1080 1019
f 1031 1081 1078
f 1019 1052 994
f 1034 1166 1082
f 1034 1035 1166
f 1166 1035 1122
f 888 1051 1054
f 1054 1081 888
f 1022 1052 1053
f 994 1052 1022
f 1035 1036 1122
f 1122 1036 1055
f 1022 1053 1056
f 1036 1037 1055
f 1055 1037 1057
f 1037 1038 1057
f 1057 1038 1058
f 1038 936 1058
f 1058 936 1061
f 936 1004 1061
f 1040 1039 979
f 1040 1144 1039
f 1040 956 1144
f 1103 1336 956
f 1102 1042 1041
f 1063 1042 1102
f 1066 1006 980
f 1042 1063 1065
f 1066 1339 1043
f 1007 1339 1066
f 960 1067 1107
f 960 1107 1044
f 1027 1044 1068
f 1045 1027 1068
f 1067 1028 1070
f 1009 1027 1045
f 983 1046 1069
f 1072 983 1069
f 1011 983 1072
f 1011 1072 1047
f 1048 1047 1073
f 1048 1073 1014
f 1074 1071 1070
f 1028 1074 1070
f 1075 1077 1029
f 1029 1077 1079
f 1031 1078 1050
f 1080 1029 1079
f 1078 1081 1207
f 1080 1117 1019
f 1019 1117 1052
f 1117 1118 1052
f 1084 1081 1083
f 1084 1083 1121
f 1083 1085 1121
f 1118 1053 1052
f 1086 1053 1118
f 1083 1081 1054
f 1083 1054 1087
f 1088 1083 1087
f 1085 1083 1088
f 1088 1089 1085
f 1120 1085 1089
f 1120 1089 1125
f 1089 1090 1125
f 1125 1090 1091
f 1122 1055 1092
f 1089 1088 1128
f 1093 1089 1128
f 1090 1089 1093
f 1093 1097 1090
f 1097 1094 1090
f 1091 1090 1094
f 1091 1094 1095
f 1094 1096 1095
f 1053 1086 1056
f 1055 1057 1092
f 1092 1057 1134
f 1098 1094 1097
f 1096 1094 1098
f 1057 1058 1134
f 1134 1058 1141
f 1059 1099 1186
f 1186 1060 1059
f 1187 1060 1186
f 1100 1061 1004
f 1100 1141 1061
f 1141 1058 1061
f 1060 1187 1041
f 1187 1143 1041
f 1004 1101 1100
f 1062 1101 1004
f 1004 1039 1062
f 1102 1143 1145
f 1102 1041 1143
f 956 1336 1144
f 1063 1102 1145
f 1026 1064 1104
f 1006 1146 1064
f 1105 1006 1066
f 1063 1242 1065
f 1066 1043 1105
f 1242 1007 1065
f 1067 1106 1107
f 1108 1044 1107
f 1108 1068 1044
f 1067 1070 1106
f 1106 1070 1109
f 1110 1068 1108
f 1045 1068 1110
f 1045 1110 1151
f 1045 1151 1152
f 1045 1152 1111
f 1112 1046 1111
f 1046 1045 1111
f 1112 1069 1046
f 1109 1070 1071
f 1113 1109 1071
f 1114 1069 1112
f 1072 1069 1114
f 1072 1114 1196
f 1072 1196 1047
f 1071 1074 1113
f 1014 1073 1115
f 1014 1115 1049
f 1014 1049 1157
f 1157 1075 1014
f 1113 1076 1189
f 1189 1076 1193
f 1076 1050 1193
f 1161 1079 1077
f 1078 1116 1193
f 1078 1207 1116
f 1050 1078 1193
f 1207 1081 1254
f 1165 1081 1084
f 1165 1254 1081
f 1118 1117 1119
f 1082 1166 1264
f 1051 1082 1215
f 1082 1264 1215
f 1085 1120 1121
f 1086 1118 1119
f 1051 1215 1220
f 1054 1051 1220
f 1087 1054 1220
f 1088 1087 1220
f 1088 1220 1173
f 1120 1123 1121
f 1120 1125 1123
f 1125 1170 1123
f 1125 1124 1170
f 1091 1126 1125
f 1119 1127 1086
f 1093 1129 1097
f 1126 1091 1095
f 1095 1175 1126
f 1096 1130 1131
f 1096 1131 1095
f 1095 1131 1175
f 1130 1132 1133
f 1131 1130 1133
f 1086 1127 1056
f 1129 1135 1097
f 1097 1135 1098
f 1130 1096 1098
f 1130 1098 1182
f 1182 1098 1135
f 1132 1130 1182
f 1136 1132 1182
f 1137 1138 1139
f 1138 1137 1140
f 1140 1056 1127
f 1137 1139 1185
f 1140 1137 1185
f 1142 1140 1185
f 1056 1140 1142
f 1056 1142 1099
f 1099 1142 1186
f 1238 1145 1143
f 1103 1026 1104
f 1145 1242 1063
f 1146 1338 1064
f 1105 1146 1006
f 1105 1043 1146
f 1107 1106 1147
f 1107 1147 1108
f 1147 1149 1150
f 1147 1109 1149
f 1147 1106 1109
f 1109 1148 1149
f 1108 1147 1150
f 1108 1150 1191
f 1110 1108 1191
f 1110 1191 1151
f 1152 1154 1111
f 1111 1154 1112
f 1113 1189 1148
f 1109 1113 1148
f 1154 1152 1153
f 1112 1154 1114
f 1047 1197 1155
f 1047 1196 1197
f 1047 1115 1073
f 1047 1155 1156
f 1115 1047 1156
f 1158 1075 1157
f 1158 1202 1075
f 1075 1202 1077
f 1202 1159 1077
f 1203 1193 1160
f 1160 1193 1116
f 1207 1160 1116
f 1159 1161 1077
f 1079 1161 1080
f 1080 1163 1117
f 1254 1164 1162
f 1165 1164 1254
f 1163 1119 1117
f 1214 1119 1163
f 1165 1084 1167
f 1084 1121 1167
f 1168 1167 1121
f 1121 1169 1168
f 1169 1170 1171
f 1166 1122 1172
f 1121 1123 1169
f 1170 1169 1123
f 1170 1124 1171
f 1125 1219 1124
f 1126 1174 1125
f 1125 1174 1219
f 1174 1175 1176
f 1119 1214 1127
f 1122 1092 1172
f 1172 1092 1227
f 1088 1173 1177
f 1128 1088 1177
f 1175 1174 1126
f 1175 1178 1176
f 1175 1131 1178
f 1131 1224 1178
f 1133 1180 1131
f 1131 1180 1224
f 1132 1179 1180
f 1132 1180 1133
f 1180 1179 1181
f 1092 1134 1227
f 1227 1134 1232
f 1129 1229 1135
f 1179 1132 1136
f 1179 1136 1183
f 1138 1184 1139
f 1138 1179 1184
f 1138 1181 1179
f 1179 1183 1184
f 1140 1181 1138
f 1127 1181 1140
f 1134 1141 1232
f 1232 1141 1233
f 1139 1184 1185
f 1142 1185 1186
f 1141 1100 1233
f 1237 1100 1101
f 1187 1235 1143
f 1062 1237 1101
f 1235 1238 1143
f 1144 1336 1188
f 1145 1238 1242
f 1149 1189 1190
f 1148 1189 1149
f 1150 1149 1243
f 1149 1190 1243
f 1191 1243 1192
f 1191 1150 1243
f 1191 1195 1151
f 1191 1192 1194
f 1285 1191 1194
f 1195 1191 1285
f 1152 1151 1195
f 1152 1195 1153
f 1154 1153 1195
f 1114 1154 1248
f 1154 1195 1248
f 1196 1248 1286
f 1196 1114 1248
f 1198 1197 1196
f 1196 1286 1198
f 1155 1197 1198
f 1156 1155 1289
f 1115 1156 1289
f 1115 1289 1199
f 1049 1115 1199
f 1157 1049 1200
f 1201 1157 1200
f 1201 1158 1157
f 1201 1202 1158
f 1246 1193 1203
f 1202 1205 1159
f 1207 1204 1203
f 1160 1207 1203
f 1161 1205 1206
f 1159 1205 1161
f 1299 1163 1161
f 1298 1254 1255
f 1255 1254 1208
f 1161 1163 1080
f 1209 1208 1162
f 1208 1254 1162
f 1162 1164 1210
f 1164 1165 1210
f 1165 1211 1210
f 1259 1168 1212
f 1212 1168 1213
f 1166 1263 1264
f 1165 1167 1211
f 1168 1211 1167
f 1168 1216 1213
f 1168 1169 1216
f 1171 1216 1169
f 1171 1217 1216
f 1166 1172 1263
f 1220 1322 1173
f 1173 1221 1272
f 1171 1124 1217
f 1218 1217 1124
f 1219 1218 1124
f 1219 1222 1218
f 1174 1222 1219
f 1176 1265 1174
f 1174 1265 1222
f 1176 1223 1265
f 1223 1224 1225
f 1214 1226 1127
f 1173 1272 1177
f 1177 1272 1128
f 1093 1128 1272
f 1093 1272 1228
f 1129 1093 1228
f 1228 1229 1129
f 1176 1178 1223
f 1224 1223 1178
f 1224 1230 1225
f 1224 1180 1230
f 1181 1269 1180
f 1180 1269 1230
f 1181 1231 1269
f 1226 1181 1127
f 1231 1181 1226
f 1135 1229 1182
f 1185 1184 1275
f 1185 1275 1186
f 1234 1187 1186
f 1235 1187 1234
f 1238 1235 1236
f 1039 1239 1062
f 1144 1239 1039
f 1144 1188 1239
f 1103 1104 1240
f 1104 1241 1240
f 1104 1064 1241
f 1338 1146 1043
f 1339 1007 1242
f 1190 1244 1279
f 1190 1189 1244
f 1189 1193 1244
f 1243 1190 1279
f 1192 1243 1279
f 1194 1192 1245
f 1285 1194 1245
f 1285 1247 1195
f 1247 1248 1195
f 1244 1193 1246
f 1285 1245 1284
f 1155 1198 1249
f 1198 1286 1249
f 1289 1155 1249
f 1289 1249 1345
f 1292 1199 1289
f 1049 1199 1292
f 1049 1292 1200
f 1201 1200 1290
f 1200 1292 1290
f 1290 1202 1201
f 1250 1202 1290
f 1202 1250 1205
f 1246 1203 1251
f 1250 1252 1205
f 1251 1203 1204
f 1252 1206 1205
f 1253 1206 1252
f 1204 1207 1254
f 1206 1253 1161
f 1161 1253 1299
f 1255 1208 1256
f 1208 1257 1256
f 1209 1257 1208
f 1162 1258 1209
f 1209 1258 1257
f 1304 1259 1305
f 1305 1259 1261
f 1162 1210 1258
f 1211 1258 1210
f 1259 1258 1211
f 1168 1259 1211
f 1259 1212 1261
f 1212 1213 1261
f 1214 1299 1260
f 1163 1299 1214
f 1309 1213 1216
f 1217 1309 1216
f 1309 1217 1262
f 1217 1218 1262
f 1218 1315 1262
f 1218 1222 1315
f 1315 1222 1265
f 1263 1172 1267
f 1265 1223 1266
f 1225 1266 1223
f 1225 1230 1268
f 1225 1268 1266
f 1268 1230 1319
f 1319 1269 1270
f 1172 1227 1267
f 1267 1227 1271
f 1272 1221 1327
f 1269 1319 1230
f 1269 1231 1270
f 1227 1232 1271
f 1271 1232 1273
f 1182 1229 1136
f 1183 1136 1274
f 1274 1184 1183
f 1232 1233 1273
f 1184 1274 1275
f 1236 1186 1333
f 1186 1275 1333
f 1186 1236 1234
f 1100 1276 1233
f 1234 1236 1235
f 1100 1237 1276
f 1062 1239 1277
f 1062 1277 1334
f 1236 1242 1238
f 1239 1188 1277
f 1336 1278 1188
f 1240 1336 1103
f 1241 1337 1240
f 1064 1338 1241
f 1279 1280 1192
f 1192 1280 1245
f 1279 1246 1283
f 1244 1246 1279
f 1280 1279 1283
f 1245 1280 1284
f 1280 1283 1284
f 1247 1286 1248
f 1286 1281 1249
f 1287 1281 1286
f 1283 1246 1282
f 1284 1283 1341
f 1340 1285 1284
f 1287 1288 1291
f 1287 1291 1281
f 1249 1281 1345
f 1281 1291 1345
f 1407 1289 1345
f 1294 1290 1292
f 1294 1250 1290
f 1294 1295 1250
f 1246 1251 1282
f 1296 1252 1295
f 1252 1250 1295
f 1204 1298 1251
f 1253 1296 1297
f 1253 1297 1346
f 1252 1296 1253
f 1204 1254 1298
f 1346 1299 1253
f 1298 1255 1300
f 1301 1300 1255
f 1301 1256 1303
f 1255 1256 1301
f 1302 1301 1304
f 1304 1301 1303
f 1358 1302 1304
f 1358 1304 1305
f 1256 1257 1303
f 1258 1303 1257
f 1304 1303 1258
f 1259 1304 1258
f 1261 1307 1305
f 1307 1306 1305
f 1363 1306 1308
f 1308 1306 1307
f 1363 1308 1309
f 1367 1260 1299
f 1311 1260 1367
f 1213 1307 1261
f 1308 1307 1213
f 1309 1308 1213
f 1262 1312 1309
f 1312 1310 1309
f 1313 1310 1314
f 1314 1310 1312
f 1313 1314 1315
f 1315 1265 1316
f 1316 1265 1266
f 1260 1311 1214
f 1311 1371 1214
f 1264 1263 1321
f 1317 1264 1321
f 1317 1215 1264
f 1215 1318 1322
f 1215 1317 1318
f 1315 1312 1262
f 1314 1312 1315
f 1374 1319 1320
f 1320 1319 1324
f 1321 1263 1326
f 1263 1267 1326
f 1215 1322 1220
f 1173 1322 1323
f 1221 1173 1323
f 1323 1327 1221
f 1268 1374 1266
f 1319 1374 1268
f 1319 1270 1324
f 1270 1325 1324
f 1325 1226 1371
f 1226 1214 1371
f 1267 1271 1326
f 1272 1327 1228
f 1270 1231 1325
f 1226 1325 1231
f 1271 1273 1326
f 1326 1273 1328
f 1274 1136 1329
f 1274 1330 1331
f 1274 1329 1330
f 1273 1233 1328
f 1328 1233 1332
f 1274 1331 1275
f 1275 1331 1333
f 1233 1276 1332
f 1062 1334 1237
f 1236 1335 1242
f 1277 1278 1334
f 1188 1278 1277
f 1336 1240 1337
f 1338 1397 1241
f 1241 1397 1337
f 1399 1338 1043
f 1335 1398 1242
f 1398 1339 1242
f 1283 1282 1341
f 1341 1340 1284
f 1285 1340 1247
f 1247 1288 1286
f 1286 1288 1287
f 1340 1341 1348
f 1247 1340 1343
f 1288 1247 1343
f 1344 1288 1343
f 1288 1344 1291
f 1407 1292 1289
f 1293 1294 1292
f 1341 1251 1342
f 1282 1251 1341
f 1347 1341 1342
f 1348 1341 1347
f 1348 1343 1340
f 1407 1344 1343
f 1407 1291 1344
f 1345 1291 1407
f 1293 1292 1407
f 1296 1346 1297
f 1296 1293 1346
f 1296 1294 1293
f 1295 1294 1296
f 1298 1342 1251
f 1298 1355 1342
f 1349 1342 1355
f 1349 1347 1342
f 1343 1348 1401
f 1355 1298 1353
f 1350 1349 1355
f 1349 1350 1351
f 1350 1355 1359
f 1351 1350 1356
f 1346 1352 1299
f 1298 1300 1353
f 1355 1353 1354
f 1356 1350 1357
f 1352 1411 1299
f 1300 1301 1353
f 1302 1353 1301
f 1354 1353 1302
f 1358 1354 1302
f 1358 1355 1354
f 1359 1355 1358
f 1357 1350 1359
f 1360 1357 1361
f 1411 1367 1299
f 1359 1358 1305
f 1306 1359 1305
f 1363 1359 1306
f 1363 1357 1359
f 1361 1357 1363
f 1364 1361 1363
f 1362 1361 1364
f 1406 1362 1365
f 1365 1362 1364
f 1364 1363 1309
f 1310 1364 1309
f 1313 1364 1310
f 1313 1365 1364
f 1366 1365 1316
f 1316 1365 1313
f 1369 1366 1316
f 1311 1367 1368
f 1311 1368 1371
f 1316 1313 1315
f 1266 1372 1316
f 1370 1316 1372
f 1373 1370 1374
f 1374 1370 1372
f 1373 1374 1320
f 1317 1378 1318
f 1377 1378 1317
f 1374 1372 1266
f 1324 1379 1320
f 1379 1375 1320
f 1380 1376 1375
f 1380 1375 1379
f 1321 1377 1317
f 1318 1382 1322
f 1318 1378 1382
f 1378 1377 1382
f 1382 1381 1322
f 1322 1381 1323
f 1325 1379 1324
f 1380 1379 1325
f 1371 1380 1325
f 1321 1326 1387
f 1382 1377 1321
f 1323 1384 1327
f 1323 1381 1384
f 1381 1382 1384
f 1384 1383 1327
f 1327 1383 1228
f 1228 1383 1229
f 1326 1328 1387
f 1385 1383 1384
f 1229 1383 1385
f 1385 1329 1229
f 1329 1136 1229
f 1330 1329 1386
f 1328 1332 1387
f 1321 1387 1392
f 1382 1321 1388
f 1385 1384 1394
f 1394 1384 1382
f 1389 1385 1394
f 1330 1386 1390
f 1331 1330 1390
f 1333 1331 1391
f 1331 1390 1391
f 1391 1236 1333
f 1335 1236 1391
f 1332 1276 1387
f 1237 1387 1276
f 1237 1392 1387
f 1388 1321 1392
f 1382 1388 1393
f 1393 1388 1395
f 1394 1382 1393
f 1394 1426 1389
f 1388 1392 1237
f 1334 1388 1237
f 1334 1395 1388
f 1334 1278 1395
f 1336 1395 1278
f 1393 1395 1336
f 1336 1396 1393
f 1396 1394 1393
f 1336 1337 1396
f 1396 1337 1397
f 1339 1399 1043
f 1400 1407 1343
f 1293 1407 1346
f 1347 1349 1351
f 1347 1351 1348
f 1351 1401 1348
f 1401 1400 1343
f 1407 1400 1401
f 1401 1351 1402
f 1402 1351 1356
f 1407 1404 1346
f 1405 1401 1402
f 1407 1401 1405
f 1404 1407 1403
f 1346 1404 1352
f 1402 1356 1357
f 1360 1402 1357
f 1360 1405 1402
f 1407 1405 1406
f 1403 1407 1418
f 1408 1409 1403
f 1408 1403 1418
f 1404 1403 1409
f 1410 1404 1409
f 1410 1352 1404
f 1410 1411 1352
f 1405 1360 1361
f 1362 1405 1361
f 1406 1405 1362
f 1407 1406 1412
f 1369 1407 1412
f 1413 1408 1418
f 1413 1418 1414
f 1414 1415 1416
f 1413 1414 1416
f 1415 1411 1416
f 1415 1367 1411
f 1366 1406 1365
f 1412 1406 1366
f 1369 1412 1366
f 1407 1369 1417
f 1418 1407 1417
f 1414 1418 1419
f 1368 1415 1419
f 1415 1414 1419
f 1367 1415 1368
f 1370 1369 1316
f 1417 1369 1370
f 1373 1417 1370
f 1373 1418 1417
f 1420 1418 1373
f 1419 1418 1420
f 1368 1419 1371
f 1420 1373 1320
f 1375 1420 1320
f 1376 1420 1375
f 1376 1419 1420
f 1419 1376 1371
f 1371 1376 1380
f 1329 1385 1421
f 1421 1422 1329
f 1329 1422 1386
f 1421 1389 1423
f 1385 1389 1421
f 1422 1421 1423
f 1386 1424 1390
f 1386 1422 1424
f 1390 1425 1391
f 1424 1425 1390
f 1391 1425 1335
f 1426 1423 1389
f 1429 1423 1426
f 1422 1423 1429
f 1424 1422 1429
f 1425 1424 1429
f 1426 1394 1427
f 1425 1429 1335
f 1394 1396 1427
f 1426 1427 1428
f 1429 1426 1428
f 1430 1429 1428
f 1396 1397 1427
f 1428 1427 1397
f 1338 1428 1397
f 1399 1428 1338
f 1399 1430 1428
f 1335 1429 1398
f 1429 1430 1399
f 1339 1429 1399
f 1398 1429 1339
f 1409 1408 1431
f 1409 1432 1410
f 1431 1432 1409
f 1410 1432 1411
f 1408 1413 1431
f 1416 1431 1413
f 1432 1431 1416
f 1411 1432 1416

