# Closed annular washer for rigid-flex eyelet demos.
v 0.055 0 -0.008
v 0.05452946738 0.007178940572 -0.008
v 0.05312592045 0.01423504748 -0.008
v 0.05081337429 0.02104758878 -0.008
v 0.04763139721 0.0275 -0.008
v 0.04363443372 0.0334818786 -0.008
v 0.03889087297 0.03889087297 -0.008
v 0.0334818786 0.04363443372 -0.008
v 0.0275 0.04763139721 -0.008
v 0.02104758878 0.05081337429 -0.008
v 0.01423504748 0.05312592045 -0.008
v 0.007178940572 0.05452946738 -0.008
v 3.367778698e-18 0.055 -0.008
v -0.007178940572 0.05452946738 -0.008
v -0.01423504748 0.05312592045 -0.008
v -0.02104758878 0.05081337429 -0.008
v -0.0275 0.04763139721 -0.008
v -0.0334818786 0.04363443372 -0.008
v -0.03889087297 0.03889087297 -0.008
v -0.04363443372 0.0334818786 -0.008
v -0.04763139721 0.0275 -0.008
v -0.05081337429 0.02104758878 -0.008
v -0.05312592045 0.01423504748 -0.008
v -0.05452946738 0.007178940572 -0.008
v -0.055 6.735557395e-18 -0.008
v -0.05452946738 -0.007178940572 -0.008
v -0.05312592045 -0.01423504748 -0.008
v -0.05081337429 -0.02104758878 -0.008
v -0.04763139721 -0.0275 -0.008
v -0.04363443372 -0.0334818786 -0.008
v -0.03889087297 -0.03889087297 -0.008
v -0.0334818786 -0.04363443372 -0.008
v -0.0275 -0.04763139721 -0.008
v -0.02104758878 -0.05081337429 -0.008
v -0.01423504748 -0.05312592045 -0.008
v -0.007178940572 -0.05452946738 -0.008
v -1.010333609e-17 -0.055 -0.008
v 0.007178940572 -0.05452946738 -0.008
v 0.01423504748 -0.05312592045 -0.008
v 0.02104758878 -0.05081337429 -0.008
v 0.0275 -0.04763139721 -0.008
v 0.0334818786 -0.04363443372 -0.008
v 0.03889087297 -0.03889087297 -0.008
v 0.04363443372 -0.0334818786 -0.008
v 0.04763139721 -0.0275 -0.008
v 0.05081337429 -0.02104758878 -0.008
v 0.05312592045 -0.01423504748 -0.008
v 0.05452946738 -0.007178940572 -0.008
v 0.055 0 0.008
v 0.05452946738 0.007178940572 0.008
v 0.05312592045 0.01423504748 0.008
v 0.05081337429 0.02104758878 0.008
v 0.04763139721 0.0275 0.008
v 0.04363443372 0.0334818786 0.008
v 0.03889087297 0.03889087297 0.008
v 0.0334818786 0.04363443372 0.008
v 0.0275 0.04763139721 0.008
v 0.02104758878 0.05081337429 0.008
v 0.01423504748 0.05312592045 0.008
v 0.007178940572 0.05452946738 0.008
v 3.367778698e-18 0.055 0.008
v -0.007178940572 0.05452946738 0.008
v -0.01423504748 0.05312592045 0.008
v -0.02104758878 0.05081337429 0.008
v -0.0275 0.04763139721 0.008
v -0.0334818786 0.04363443372 0.008
v -0.03889087297 0.03889087297 0.008
v -0.04363443372 0.0334818786 0.008
v -0.04763139721 0.0275 0.008
v -0.05081337429 0.02104758878 0.008
v -0.05312592045 0.01423504748 0.008
v -0.05452946738 0.007178940572 0.008
v -0.055 6.735557395e-18 0.008
v -0.05452946738 -0.007178940572 0.008
v -0.05312592045 -0.01423504748 0.008
v -0.05081337429 -0.02104758878 0.008
v -0.04763139721 -0.0275 0.008
v -0.04363443372 -0.0334818786 0.008
v -0.03889087297 -0.03889087297 0.008
v -0.0334818786 -0.04363443372 0.008
v -0.0275 -0.04763139721 0.008
v -0.02104758878 -0.05081337429 0.008
v -0.01423504748 -0.05312592045 0.008
v -0.007178940572 -0.05452946738 0.008
v -1.010333609e-17 -0.055 0.008
v 0.007178940572 -0.05452946738 0.008
v 0.01423504748 -0.05312592045 0.008
v 0.02104758878 -0.05081337429 0.008
v 0.0275 -0.04763139721 0.008
v 0.0334818786 -0.04363443372 0.008
v 0.03889087297 -0.03889087297 0.008
v 0.04363443372 -0.0334818786 0.008
v 0.04763139721 -0.0275 0.008
v 0.05081337429 -0.02104758878 0.008
v 0.05312592045 -0.01423504748 0.008
v 0.05452946738 -0.007178940572 0.008
v 0.025 0 -0.008
v 0.02478612153 0.003263154806 -0.008
v 0.02414814566 0.006470476128 -0.008
v 0.02309698831 0.009567085809 -0.008
v 0.02165063509 0.0125 -0.008
v 0.01983383351 0.01521903573 -0.008
v 0.01767766953 0.01767766953 -0.008
v 0.01521903573 0.01983383351 -0.008
v 0.0125 0.02165063509 -0.008
v 0.009567085809 0.02309698831 -0.008
v 0.006470476128 0.02414814566 -0.008
v 0.003263154806 0.02478612153 -0.008
v 1.530808499e-18 0.025 -0.008
v -0.003263154806 0.02478612153 -0.008
v -0.006470476128 0.02414814566 -0.008
v -0.009567085809 0.02309698831 -0.008
v -0.0125 0.02165063509 -0.008
v -0.01521903573 0.01983383351 -0.008
v -0.01767766953 0.01767766953 -0.008
v -0.01983383351 0.01521903573 -0.008
v -0.02165063509 0.0125 -0.008
v -0.02309698831 0.009567085809 -0.008
v -0.02414814566 0.006470476128 -0.008
v -0.02478612153 0.003263154806 -0.008
v -0.025 3.061616998e-18 -0.008
v -0.02478612153 -0.003263154806 -0.008
v -0.02414814566 -0.006470476128 -0.008
v -0.02309698831 -0.009567085809 -0.008
v -0.02165063509 -0.0125 -0.008
v -0.01983383351 -0.01521903573 -0.008
v -0.01767766953 -0.01767766953 -0.008
v -0.01521903573 -0.01983383351 -0.008
v -0.0125 -0.02165063509 -0.008
v -0.009567085809 -0.02309698831 -0.008
v -0.006470476128 -0.02414814566 -0.008
v -0.003263154806 -0.02478612153 -0.008
v -4.592425497e-18 -0.025 -0.008
v 0.003263154806 -0.02478612153 -0.008
v 0.006470476128 -0.02414814566 -0.008
v 0.009567085809 -0.02309698831 -0.008
v 0.0125 -0.02165063509 -0.008
v 0.01521903573 -0.01983383351 -0.008
v 0.01767766953 -0.01767766953 -0.008
v 0.01983383351 -0.01521903573 -0.008
v 0.02165063509 -0.0125 -0.008
v 0.02309698831 -0.009567085809 -0.008
v 0.02414814566 -0.006470476128 -0.008
v 0.02478612153 -0.003263154806 -0.008
v 0.025 0 0.008
v 0.02478612153 0.003263154806 0.008
v 0.02414814566 0.006470476128 0.008
v 0.02309698831 0.009567085809 0.008
v 0.02165063509 0.0125 0.008
v 0.01983383351 0.01521903573 0.008
v 0.01767766953 0.01767766953 0.008
v 0.01521903573 0.01983383351 0.008
v 0.0125 0.02165063509 0.008
v 0.009567085809 0.02309698831 0.008
v 0.006470476128 0.02414814566 0.008
v 0.003263154806 0.02478612153 0.008
v 1.530808499e-18 0.025 0.008
v -0.003263154806 0.02478612153 0.008
v -0.006470476128 0.02414814566 0.008
v -0.009567085809 0.02309698831 0.008
v -0.0125 0.02165063509 0.008
v -0.01521903573 0.01983383351 0.008
v -0.01767766953 0.01767766953 0.008
v -0.01983383351 0.01521903573 0.008
v -0.02165063509 0.0125 0.008
v -0.02309698831 0.009567085809 0.008
v -0.02414814566 0.006470476128 0.008
v -0.02478612153 0.003263154806 0.008
v -0.025 3.061616998e-18 0.008
v -0.02478612153 -0.003263154806 0.008
v -0.02414814566 -0.006470476128 0.008
v -0.02309698831 -0.009567085809 0.008
v -0.02165063509 -0.0125 0.008
v -0.01983383351 -0.01521903573 0.008
v -0.01767766953 -0.01767766953 0.008
v -0.01521903573 -0.01983383351 0.008
v -0.0125 -0.02165063509 0.008
v -0.009567085809 -0.02309698831 0.008
v -0.006470476128 -0.02414814566 0.008
v -0.003263154806 -0.02478612153 0.008
v -4.592425497e-18 -0.025 0.008
v 0.003263154806 -0.02478612153 0.008
v 0.006470476128 -0.02414814566 0.008
v 0.009567085809 -0.02309698831 0.008
v 0.0125 -0.02165063509 0.008
v 0.01521903573 -0.01983383351 0.008
v 0.01767766953 -0.01767766953 0.008
v 0.01983383351 -0.01521903573 0.008
v 0.02165063509 -0.0125 0.008
v 0.02309698831 -0.009567085809 0.008
v 0.02414814566 -0.006470476128 0.008
v 0.02478612153 -0.003263154806 0.008
f 1 2 50
f 1 50 49
f 97 146 98
f 97 145 146
f 49 50 146
f 49 146 145
f 1 98 2
f 1 97 98
f 2 3 51
f 2 51 50
f 98 147 99
f 98 146 147
f 50 51 147
f 50 147 146
f 2 99 3
f 2 98 99
f 3 4 52
f 3 52 51
f 99 148 100
f 99 147 148
f 51 52 148
f 51 148 147
f 3 100 4
f 3 99 100
f 4 5 53
f 4 53 52
f 100 149 101
f 100 148 149
f 52 53 149
f 52 149 148
f 4 101 5
f 4 100 101
f 5 6 54
f 5 54 53
f 101 150 102
f 101 149 150
f 53 54 150
f 53 150 149
f 5 102 6
f 5 101 102
f 6 7 55
f 6 55 54
f 102 151 103
f 102 150 151
f 54 55 151
f 54 151 150
f 6 103 7
f 6 102 103
f 7 8 56
f 7 56 55
f 103 152 104
f 103 151 152
f 55 56 152
f 55 152 151
f 7 104 8
f 7 103 104
f 8 9 57
f 8 57 56
f 104 153 105
f 104 152 153
f 56 57 153
f 56 153 152
f 8 105 9
f 8 104 105
f 9 10 58
f 9 58 57
f 105 154 106
f 105 153 154
f 57 58 154
f 57 154 153
f 9 106 10
f 9 105 106
f 10 11 59
f 10 59 58
f 106 155 107
f 106 154 155
f 58 59 155
f 58 155 154
f 10 107 11
f 10 106 107
f 11 12 60
f 11 60 59
f 107 156 108
f 107 155 156
f 59 60 156
f 59 156 155
f 11 108 12
f 11 107 108
f 12 13 61
f 12 61 60
f 108 157 109
f 108 156 157
f 60 61 157
f 60 157 156
f 12 109 13
f 12 108 109
f 13 14 62
f 13 62 61
f 109 158 110
f 109 157 158
f 61 62 158
f 61 158 157
f 13 110 14
f 13 109 110
f 14 15 63
f 14 63 62
f 110 159 111
f 110 158 159
f 62 63 159
f 62 159 158
f 14 111 15
f 14 110 111
f 15 16 64
f 15 64 63
f 111 160 112
f 111 159 160
f 63 64 160
f 63 160 159
f 15 112 16
f 15 111 112
f 16 17 65
f 16 65 64
f 112 161 113
f 112 160 161
f 64 65 161
f 64 161 160
f 16 113 17
f 16 112 113
f 17 18 66
f 17 66 65
f 113 162 114
f 113 161 162
f 65 66 162
f 65 162 161
f 17 114 18
f 17 113 114
f 18 19 67
f 18 67 66
f 114 163 115
f 114 162 163
f 66 67 163
f 66 163 162
f 18 115 19
f 18 114 115
f 19 20 68
f 19 68 67
f 115 164 116
f 115 163 164
f 67 68 164
f 67 164 163
f 19 116 20
f 19 115 116
f 20 21 69
f 20 69 68
f 116 165 117
f 116 164 165
f 68 69 165
f 68 165 164
f 20 117 21
f 20 116 117
f 21 22 70
f 21 70 69
f 117 166 118
f 117 165 166
f 69 70 166
f 69 166 165
f 21 118 22
f 21 117 118
f 22 23 71
f 22 71 70
f 118 167 119
f 118 166 167
f 70 71 167
f 70 167 166
f 22 119 23
f 22 118 119
f 23 24 72
f 23 72 71
f 119 168 120
f 119 167 168
f 71 72 168
f 71 168 167
f 23 120 24
f 23 119 120
f 24 25 73
f 24 73 72
f 120 169 121
f 120 168 169
f 72 73 169
f 72 169 168
f 24 121 25
f 24 120 121
f 25 26 74
f 25 74 73
f 121 170 122
f 121 169 170
f 73 74 170
f 73 170 169
f 25 122 26
f 25 121 122
f 26 27 75
f 26 75 74
f 122 171 123
f 122 170 171
f 74 75 171
f 74 171 170
f 26 123 27
f 26 122 123
f 27 28 76
f 27 76 75
f 123 172 124
f 123 171 172
f 75 76 172
f 75 172 171
f 27 124 28
f 27 123 124
f 28 29 77
f 28 77 76
f 124 173 125
f 124 172 173
f 76 77 173
f 76 173 172
f 28 125 29
f 28 124 125
f 29 30 78
f 29 78 77
f 125 174 126
f 125 173 174
f 77 78 174
f 77 174 173
f 29 126 30
f 29 125 126
f 30 31 79
f 30 79 78
f 126 175 127
f 126 174 175
f 78 79 175
f 78 175 174
f 30 127 31
f 30 126 127
f 31 32 80
f 31 80 79
f 127 176 128
f 127 175 176
f 79 80 176
f 79 176 175
f 31 128 32
f 31 127 128
f 32 33 81
f 32 81 80
f 128 177 129
f 128 176 177
f 80 81 177
f 80 177 176
f 32 129 33
f 32 128 129
f 33 34 82
f 33 82 81
f 129 178 130
f 129 177 178
f 81 82 178
f 81 178 177
f 33 130 34
f 33 129 130
f 34 35 83
f 34 83 82
f 130 179 131
f 130 178 179
f 82 83 179
f 82 179 178
f 34 131 35
f 34 130 131
f 35 36 84
f 35 84 83
f 131 180 132
f 131 179 180
f 83 84 180
f 83 180 179
f 35 132 36
f 35 131 132
f 36 37 85
f 36 85 84
f 132 181 133
f 132 180 181
f 84 85 181
f 84 181 180
f 36 133 37
f 36 132 133
f 37 38 86
f 37 86 85
f 133 182 134
f 133 181 182
f 85 86 182
f 85 182 181
f 37 134 38
f 37 133 134
f 38 39 87
f 38 87 86
f 134 183 135
f 134 182 183
f 86 87 183
f 86 183 182
f 38 135 39
f 38 134 135
f 39 40 88
f 39 88 87
f 135 184 136
f 135 183 184
f 87 88 184
f 87 184 183
f 39 136 40
f 39 135 136
f 40 41 89
f 40 89 88
f 136 185 137
f 136 184 185
f 88 89 185
f 88 185 184
f 40 137 41
f 40 136 137
f 41 42 90
f 41 90 89
f 137 186 138
f 137 185 186
f 89 90 186
f 89 186 185
f 41 138 42
f 41 137 138
f 42 43 91
f 42 91 90
f 138 187 139
f 138 186 187
f 90 91 187
f 90 187 186
f 42 139 43
f 42 138 139
f 43 44 92
f 43 92 91
f 139 188 140
f 139 187 188
f 91 92 188
f 91 188 187
f 43 140 44
f 43 139 140
f 44 45 93
f 44 93 92
f 140 189 141
f 140 188 189
f 92 93 189
f 92 189 188
f 44 141 45
f 44 140 141
f 45 46 94
f 45 94 93
f 141 190 142
f 141 189 190
f 93 94 190
f 93 190 189
f 45 142 46
f 45 141 142
f 46 47 95
f 46 95 94
f 142 191 143
f 142 190 191
f 94 95 191
f 94 191 190
f 46 143 47
f 46 142 143
f 47 48 96
f 47 96 95
f 143 192 144
f 143 191 192
f 95 96 192
f 95 192 191
f 47 144 48
f 47 143 144
f 48 1 49
f 48 49 96
f 144 145 97
f 144 192 145
f 96 49 145
f 96 145 192
f 48 97 1
f 48 144 97
